<svg width="550" height="594" viewBox="0 0 550 594" fill="none" xmlns="http://www.w3.org/2000/svg">
<path d="M321.774 225.318C321.774 234.828 319.554 242.848 315.06 249.464C310.495 256.178 304.483 261.824 296.898 266.389C289.116 271.081 280.099 274.719 269.733 277.261C259.001 279.888 247.708 281.503 235.825 282.065V302.628L169.57 303.724V281.068H168.895C146.056 279.298 125.535 275.814 107.879 270.519C89.3521 264.971 73.5783 257.821 60.9227 249.056C47.8457 240.025 38.1679 229.518 32.1281 217.607C25.9899 205.527 22.8998 192.478 22.8998 178.573V66.8638C22.8998 52.6351 27.9283 41.5246 37.8589 33.6868C47.5367 26.0317 60.0237 21.1296 75.025 18.8962C89.4925 16.7612 105.337 17 122.361 19.4862C138.64 21.874 154.386 25.8772 169.57 31.4114V17L235.825 42.4657L236.373 55.7393C248.242 60.5571 259.507 66.3301 270.224 73.0301C280.576 79.5054 289.58 86.6127 297.347 94.3662C304.918 101.923 310.86 109.986 315.27 118.596C319.611 127.08 321.76 135.929 321.76 145.213V225.29L321.774 225.318ZM169.584 67.6785C152.981 63.8861 139.272 63.1838 128.85 65.7963C118.119 68.4791 112.641 75.4741 112.641 86.7391V205.036C112.641 210.668 114.467 215.823 118.119 220.444C121.714 225.037 126.307 228.998 131.856 232.355C137.306 235.656 143.402 238.325 150.13 240.362C156.731 242.356 163.207 243.705 169.584 244.407V67.6925V67.6785ZM276.531 130.282C276.531 121.405 272.893 113.455 265.477 106.305C257.878 98.9733 248.074 93.0177 235.853 88.4527L236.401 248.832C241.121 248.649 245.953 247.989 250.883 246.865C255.743 245.756 260.097 244.168 263.974 242.075C267.808 240.011 270.856 237.44 273.146 234.35C275.421 231.288 276.545 227.664 276.545 223.464V130.282H276.531Z" stroke="#E3102C" stroke-width="22.93" stroke-miterlimit="10"/>
<path d="M431.643 299.356L424.198 261.024L385.304 258.425C383.759 265.252 382.256 272.162 380.81 279.171C379.349 286.222 377.944 293.26 376.582 300.283L336.059 300.957C345.189 264.563 354.01 229.546 362.564 195.864C370.837 163.248 378.843 131.462 386.625 100.462L423.088 114.48L459.651 298.892L431.657 299.356H431.643ZM404.632 151.899C402.595 164.625 400.432 177.407 398.157 190.217C395.853 203.154 393.311 216.413 390.53 230.038L419.394 233.648L406.149 152.349L404.632 151.899Z" stroke="#E3102C" stroke-width="22.93" stroke-miterlimit="10"/>
<path d="M519.866 297.895V234.041L496.676 230.361V298.274L473.936 298.653V134.033L496.676 142.769V207.789L519.866 212.817V151.689L537.916 158.627V297.586L519.866 297.881V297.895Z" stroke="#E3102C" stroke-width="22.93" stroke-miterlimit="10"/>
<path d="M275.042 458.456C275.042 466.729 272.949 474.483 268.735 481.815C264.465 489.259 258.833 496.254 251.768 502.856C244.548 509.612 236.19 515.849 226.639 521.58C216.807 527.479 206.497 532.69 195.724 537.157V554.672L136.674 577.216V558.198L136.084 558.408C116.138 564.336 98.3978 568.016 83.242 569.266C67.4823 570.573 54.1665 569.673 43.5476 566.485C32.6338 563.226 24.5994 557.706 19.613 549.911C14.5424 542.045 12 532.409 12 521.116V430.336C12 418.776 16.1436 407.988 24.3466 398.142C32.381 388.478 42.7891 380.037 55.3885 372.831C67.6087 365.85 81.0789 360.288 95.6588 356.13C109.705 352.113 123.386 349.641 136.674 348.629V336.522L195.724 332.996L196.215 344.107C206.975 343.713 217.27 344.359 227.089 346.017C236.626 347.632 244.955 350.315 252.175 354.037C259.226 357.675 264.788 362.395 268.932 368.182C273.019 373.898 275.042 380.767 275.042 388.843V458.442V458.456ZM136.674 379.067C122.15 381.947 110.239 386.329 101.235 392.257C92.0068 398.325 87.3154 406.092 87.3154 415.419V513.475C87.3154 518.152 88.8886 521.804 92.0068 524.445C95.097 527.072 99.0439 528.855 103.834 529.825C108.553 530.78 113.835 530.99 119.678 530.471C125.423 529.965 131.083 528.94 136.674 527.409V379.067ZM232.89 392.847C232.89 385.22 229.533 379.742 222.72 376.37C215.767 372.929 206.82 371.511 195.724 372.171L196.215 508.643C200.499 506.873 204.868 504.654 209.362 501.999C213.787 499.373 217.776 496.507 221.33 493.361C224.841 490.271 227.65 486.984 229.743 483.543C231.836 480.115 232.876 476.604 232.876 472.98V392.833L232.89 392.847Z" stroke="#E3102C" stroke-width="22.93" stroke-miterlimit="10"/>
<path d="M310.663 510.792V326.127L401.556 320.692V343.25L346.087 349.163V396.457L395.038 386.947V410.25L346.087 422.091V472.123L401.556 453.54V476.098L310.663 510.792Z" stroke="#E3102C" stroke-width="22.93" stroke-miterlimit="10"/>
<path d="M453.274 316.407C458.85 316.084 463.541 316.59 467.404 317.896C471.183 319.174 474.273 321.071 476.703 323.571C479.105 326.043 480.832 329.049 481.928 332.589C483.009 336.114 483.557 340.019 483.557 344.345L464.806 352.042C464.806 347.126 463.907 343.222 462.095 340.328C460.269 337.406 457.319 336.142 453.175 336.564C450.675 336.816 448.624 337.575 447.023 338.825C445.408 340.089 444.158 341.62 443.259 343.418C442.36 345.23 441.756 347.154 441.405 349.177C441.054 351.214 440.885 353.11 440.885 354.894V427.428C440.885 428.805 441.025 430.265 441.292 431.825C441.559 433.384 442.149 434.732 443.034 435.87C443.919 437.008 445.141 437.794 446.7 438.23C448.245 438.665 450.198 438.468 452.571 437.668C460.283 435.069 464.103 428.201 464.23 417.02C467.573 416.669 470.873 416.219 474.118 415.686C477.307 415.166 480.453 414.674 483.543 414.225C483.318 424.057 480.818 432.667 475.986 440.14C471.028 447.809 463.485 453.638 453.077 457.641C441.447 462.108 432.443 462.544 426.446 458.667C420.279 454.692 417.133 446.615 417.133 434.507V359.529C417.133 353.911 417.793 348.545 419.099 343.432C420.392 338.347 422.555 333.825 425.561 329.878C428.524 325.973 432.345 322.841 437.008 320.453C441.559 318.107 447.009 316.773 453.288 316.421L453.274 316.407Z" stroke="#E3102C" stroke-width="22.93" stroke-miterlimit="10"/>
<path d="M521.959 330.426V430.153L506.242 436.151V332.111L488.431 334.007V315.509L536.932 312.615V328.838L521.959 330.44V330.426Z" stroke="#E3102C" stroke-width="22.93" stroke-miterlimit="10"/>
<path d="M321.858 226.863C321.858 236.373 319.639 244.393 315.144 251.009C310.579 257.723 304.567 263.369 296.982 267.934C289.201 272.626 280.183 276.264 269.817 278.806C259.086 281.433 247.793 283.048 235.909 283.61V304.173L169.654 305.269V282.613H168.98C146.141 280.843 125.619 277.359 107.963 272.064C89.4363 266.516 73.6625 259.366 61.0069 250.601C47.93 241.57 38.2522 231.063 32.2123 219.152C26.0742 207.072 22.984 194.024 22.984 180.118V68.4089C22.984 54.1802 28.0125 43.0697 37.9432 35.2319C47.6209 27.5768 60.108 22.6747 75.1092 20.4413C89.5768 18.3063 105.421 18.5451 122.445 21.0313C138.724 23.4191 154.47 27.4223 169.654 32.9565V18.5451L235.909 44.0108L236.457 57.2843C248.326 62.1022 259.591 67.8752 270.309 74.5752C280.661 81.0505 289.664 88.1578 297.432 95.9112C305.002 103.468 310.944 111.531 315.354 120.141C319.695 128.625 321.844 137.474 321.844 146.758V226.835L321.858 226.863ZM169.668 69.2236C153.065 65.4311 139.356 64.7288 128.934 67.3414C118.203 70.0242 112.725 77.0192 112.725 88.2842V206.581C112.725 212.213 114.551 217.368 118.203 221.989C121.799 226.583 126.392 230.544 131.94 233.901C137.39 237.201 143.486 239.87 150.214 241.907C156.816 243.901 163.291 245.25 169.668 245.952V69.2376V69.2236ZM276.615 131.827C276.615 122.95 272.977 115 265.561 107.85C257.962 100.518 248.158 94.5628 235.938 89.9978L236.485 250.377C241.205 250.194 246.037 249.534 250.967 248.41C255.827 247.301 260.181 245.713 264.058 243.62C267.893 241.556 270.941 238.985 273.23 235.895C275.506 232.833 276.629 229.209 276.629 225.009V131.827H276.615Z" fill="white"/>
<path d="M431.741 300.901L424.296 262.569L385.403 259.97C383.857 266.797 382.355 273.707 380.908 280.716C379.447 287.767 378.042 294.805 376.68 301.828L336.157 302.502C345.287 266.108 354.108 231.091 362.662 197.409C370.935 164.794 378.941 133.007 386.723 102.007L423.187 116.025L459.749 300.437L431.755 300.901H431.741ZM404.73 153.444C402.693 166.17 400.53 178.952 398.255 191.762C395.951 204.699 393.409 217.958 390.628 231.583L419.493 235.193L406.247 153.894L404.73 153.444Z" fill="white"/>
<path d="M519.951 299.426V235.572L496.76 231.892V299.805L474.02 300.184V135.563L496.76 144.3V209.32L519.951 214.348V153.219L538 160.158V299.117L519.951 299.412V299.426Z" fill="white"/>
<path d="M275.126 459.987C275.126 468.261 273.033 476.014 268.82 483.346C264.55 490.791 258.917 497.786 251.852 504.387C244.632 511.143 236.275 517.38 226.723 523.111C216.891 529.01 206.581 534.221 195.808 538.688V556.204L136.758 578.748V559.729L136.168 559.94C116.222 565.867 98.482 569.547 83.3263 570.797C67.5665 572.104 54.2507 571.205 43.6319 568.016C32.718 564.758 24.6836 559.237 19.6972 551.442C14.6266 543.576 12.0842 533.94 12.0842 522.647V431.867C12.0842 420.307 16.2278 409.52 24.4308 399.673C32.4652 390.01 42.8734 381.568 55.4728 374.362C67.6929 367.381 81.1632 361.819 95.743 357.661C109.789 353.644 123.47 351.172 136.758 350.161V338.053L195.808 334.527L196.299 345.638C207.059 345.244 217.355 345.891 227.173 347.548C236.71 349.163 245.04 351.846 252.259 355.568C259.31 359.206 264.873 363.926 269.016 369.713C273.104 375.43 275.126 382.298 275.126 390.375V459.973V459.987ZM136.758 380.599C122.234 383.478 110.323 387.86 101.319 393.788C92.091 399.856 87.3996 407.623 87.3996 416.95V515.006C87.3996 519.684 88.9728 523.336 92.091 525.976C95.1812 528.603 99.1282 530.387 103.918 531.356C108.637 532.311 113.919 532.522 119.762 532.002C125.507 531.496 131.167 530.471 136.758 528.94V380.599ZM232.974 394.378C232.974 386.751 229.617 381.273 222.804 377.902C215.852 374.46 206.904 373.042 195.808 373.702L196.299 510.174C200.583 508.404 204.952 506.185 209.447 503.53C213.871 500.904 217.86 498.038 221.414 494.892C224.925 491.802 227.735 488.515 229.828 485.074C231.92 481.647 232.96 478.135 232.96 474.511V394.364L232.974 394.378Z" fill="white"/>
<path d="M310.761 512.337V327.673L401.654 322.237V344.795L346.186 350.708V398.002L395.137 388.493V411.795L346.186 423.636V473.668L401.654 455.085V477.643L310.761 512.337Z" fill="white"/>
<path d="M453.372 317.953C458.948 317.63 463.64 318.135 467.502 319.442C471.281 320.72 474.371 322.616 476.801 325.116C479.203 327.588 480.93 330.594 482.026 334.134C483.108 337.659 483.655 341.564 483.655 345.89L464.904 353.588C464.904 348.672 464.005 344.767 462.193 341.873C460.367 338.952 457.417 337.688 453.274 338.109C450.773 338.362 448.723 339.12 447.121 340.37C445.506 341.635 444.256 343.166 443.357 344.963C442.458 346.775 441.854 348.7 441.503 350.722C441.152 352.759 440.983 354.655 440.983 356.439V428.973C440.983 430.35 441.124 431.811 441.391 433.37C441.657 434.929 442.247 436.277 443.132 437.415C444.017 438.553 445.239 439.34 446.798 439.775C448.343 440.21 450.296 440.014 452.67 439.213C460.381 436.615 464.202 429.746 464.328 418.565C467.671 418.214 470.972 417.765 474.216 417.231C477.405 416.711 480.551 416.22 483.641 415.77C483.417 425.602 480.916 434.213 476.085 441.685C471.126 449.354 463.583 455.184 453.175 459.187C441.545 463.653 432.541 464.089 426.544 460.212C420.378 456.237 417.231 448.16 417.231 436.053V361.074C417.231 355.456 417.891 350.09 419.198 344.978C420.49 339.893 422.653 335.37 425.659 331.423C428.623 327.518 432.443 324.386 437.106 321.998C441.657 319.652 447.107 318.318 453.386 317.967L453.372 317.953Z" fill="white"/>
<path d="M522.044 331.971V431.698L506.326 437.696V333.656L488.515 335.553V317.054L537.017 314.16V330.384L522.044 331.985V331.971Z" fill="white"/>
</svg>
