<svg width="2801" height="2834" viewBox="0 0 2801 2834" fill="none" xmlns="http://www.w3.org/2000/svg">
<g opacity="0.4">
<path d="M1597.52 1001.48C1539.63 979.715 1478.33 967.785 1416.67 965.099C1385.81 963.795 1354.9 965.218 1324.23 968.852C1308.86 970.511 1293.68 973.276 1278.47 976.081L1255.86 981.177C1248.31 982.875 1240.92 985.166 1233.49 987.181C1114.37 1021.27 1008.06 1093.84 932.97 1192.59C914.078 1217.09 897.401 1243.32 882.857 1270.65C868.352 1297.99 855.666 1326.31 845.746 1355.66C825.748 1414.24 814.682 1475.95 813.931 1538.04C812.745 1600.14 822.152 1662.52 840.45 1722.13C859.262 1781.62 887.243 1838.3 923.406 1888.83C941.23 1914.27 961.465 1938.17 983.32 1960.49C1005.14 1982.8 1028.69 2003.54 1053.91 2021.99C1079.08 2040.52 1105.6 2057.19 1133.3 2071.57C1161.09 2085.83 1189.9 2097.91 1219.42 2107.75C1248.94 2117.71 1279.34 2124.93 1310.01 2129.95C1340.71 2134.89 1371.78 2137.73 1402.92 2137.69C1434.02 2137.69 1465.17 2135.32 1495.95 2130.58C1526.74 2125.88 1557.09 2118.26 1586.7 2108.62C1601.56 2103.96 1616.02 2098.15 1630.49 2092.42C1644.71 2086.1 1658.98 2079.86 1672.69 2072.51C1700.28 2058.14 1726.84 2041.98 1751.62 2023.37C1776.48 2004.85 1800.27 1984.66 1821.97 1962.3C1843.7 1939.98 1863.74 1915.97 1881.84 1890.53C1953.77 1788.41 1992.03 1663.31 1988.95 1538C1977.92 1611.91 1952.98 1681.04 1917.49 1741.17C1882.04 1801.33 1836 1852.49 1784.03 1891.71C1818.45 1846.64 1845.09 1796.39 1862.2 1743.66C1870.86 1717.31 1877.3 1690.45 1881.53 1663.39C1885.6 1636.29 1887.41 1608.99 1887.06 1581.89C1881.13 1607.81 1873.46 1632.93 1863.62 1656.87C1853.78 1680.81 1842.16 1703.64 1829.04 1725.09C1816 1746.62 1801.02 1766.57 1784.9 1784.98C1768.69 1803.34 1751.5 1820.33 1732.93 1835.3C1762.37 1797.66 1785.29 1755.35 1800.82 1710.75C1808.49 1688.39 1814.34 1665.52 1818.33 1642.37C1819.2 1636.56 1820.35 1630.8 1820.98 1624.99L1822.96 1607.53L1824.06 1589.99C1824.46 1584.14 1824.34 1578.3 1824.5 1572.45C1825.52 1478.91 1794.18 1387.18 1739.21 1314.58C1766.28 1359.73 1784.5 1409.15 1792.84 1459.59C1801.22 1510.04 1799.8 1561.47 1789.16 1610.22C1778.57 1659 1758.81 1705.06 1731.66 1745.2C1704.51 1785.37 1670.17 1819.74 1630.76 1846.09C1630.53 1838.26 1630.09 1830.64 1629.54 1823.13C1628.98 1815.67 1627.92 1807.97 1626.89 1800.66C1616.1 1810.89 1604.05 1819.78 1591.99 1828.63C1579.5 1836.84 1566.93 1845.02 1553.58 1851.54C1527.22 1865.4 1498.88 1874.96 1469.87 1881.36C1411.65 1893.49 1349.76 1890.09 1292.77 1871.09C1235.86 1851.97 1184.05 1818.28 1144.49 1772.89L1140.7 1768.7L1137.14 1764.28L1129.98 1755.51L1123.31 1746.34C1121.01 1743.34 1118.8 1740.26 1116.78 1737.06L1110.54 1727.58C1108.48 1724.38 1106.71 1721.06 1104.77 1717.82C1100.74 1711.42 1097.54 1704.59 1093.98 1697.99C1087.5 1684.44 1081.33 1670.69 1076.67 1656.43C1074.02 1649.4 1072.16 1642.13 1069.99 1634.94C1068.88 1631.35 1068.25 1627.64 1067.3 1624C1066.47 1620.33 1065.45 1616.73 1064.85 1613.02C1052.76 1554.16 1057.3 1491.83 1076.59 1434.9C1095.8 1377.74 1130.81 1326.86 1176.22 1287.6C1199.27 1268.28 1224.76 1251.3 1251.83 1238.46C1278.98 1225.66 1307.67 1216.14 1337.31 1211.04C1366.88 1205.47 1397.31 1204.56 1427.42 1206.89C1457.5 1209.82 1487.46 1216.1 1515.87 1226.69C1488.8 1214.16 1459.71 1205.55 1429.83 1200.3C1414.9 1198.01 1399.72 1196.03 1384.46 1195.68C1376.8 1195.12 1369.21 1195.52 1361.5 1195.44C1357.67 1195.48 1353.87 1195.87 1350.04 1196.03C1346.21 1196.23 1342.33 1196.35 1338.54 1196.86L1327.04 1198.05C1323.21 1198.48 1319.45 1199.23 1315.62 1199.78C1307.95 1200.73 1300.48 1202.63 1292.85 1204.09C1277.83 1207.76 1262.78 1211.83 1248.19 1217.52C1233.41 1222.77 1219.22 1229.57 1205.12 1236.72L1194.72 1242.53L1189.5 1245.41L1184.48 1248.61L1174.33 1254.93L1164.53 1261.76L1173.26 1253.51L1182.43 1245.69L1187.01 1241.74L1191.8 1238.06L1201.4 1230.64C1214.52 1221.31 1228 1212.19 1242.34 1204.56C1256.49 1196.51 1271.43 1189.91 1286.65 1183.71C1294.36 1180.98 1302.02 1177.82 1309.93 1175.57C1313.88 1174.38 1317.79 1173 1321.78 1171.93L1333.8 1168.85C1337.79 1167.71 1341.9 1166.96 1345.97 1166.13C1350.04 1165.34 1354.11 1164.35 1358.22 1163.68C1366.48 1162.49 1374.7 1160.87 1383.08 1160.2C1399.76 1158.15 1416.67 1157.79 1433.67 1157.91C1467.58 1158.82 1501.88 1163.68 1535.16 1173.44C1464.46 1141.48 1382.84 1129.98 1303.52 1142.78C1224.24 1155.26 1147.26 1192.32 1085.76 1248.69C1119.75 1211.36 1160.46 1179.48 1205.67 1155.7C1250.92 1132.04 1300.52 1116.24 1351.78 1109.52C1454.22 1096.33 1562.71 1120.03 1651.35 1178.06C1635.78 1164.11 1618.75 1151.79 1601.12 1140.02C1583.42 1128.32 1564.64 1118.21 1545.28 1108.81C1525.75 1099.84 1505.56 1091.9 1484.77 1085.38C1463.9 1079.18 1442.52 1073.73 1420.71 1070.33C1333.44 1055.92 1239.5 1066.27 1153.26 1102.61C1207.25 1072.15 1267.08 1051.65 1328.82 1042.76C1390.55 1033.79 1454.06 1036.36 1515.24 1050.23C1576.46 1064.05 1635.27 1089.45 1687.79 1124.65C1740.36 1159.81 1786.44 1204.96 1823.11 1256.67C1789.32 1199.86 1744.11 1148.51 1690.04 1107.27C1636.06 1065.95 1573.46 1034.74 1506.59 1016.22C1439.71 997.649 1368.5 991.724 1297.87 999.782C1227.25 1007.72 1157.33 1029.84 1093.74 1064.61C1165.67 1016.77 1249.85 986.075 1336.68 975.251C1423.55 964.862 1513.19 973.947 1596.77 1003.18L1597.41 1001.44L1597.52 1001.48Z" fill="url(#paint0_linear_2024_14872)"/>
<path d="M769.984 895.541C765.713 899.673 761.775 904.138 757.81 908.575L745.913 921.858L734.044 935.169C730.245 939.745 726.584 944.431 722.868 949.063L711.748 963.011C708.115 967.726 704.205 972.218 700.849 977.154L680.217 1006.3C678.525 1008.74 676.723 1011.13 675.142 1013.65L670.4 1021.22L660.916 1036.36L651.46 1051.53C648.409 1056.66 645.664 1061.93 642.752 1067.14C637.095 1077.63 631.16 1087.97 625.753 1098.59L610.389 1130.9L606.563 1138.99C605.37 1141.71 604.289 1144.51 603.152 1147.26L596.413 1163.84C591.976 1174.91 587.261 1185.89 583.656 1197.26L572.175 1231.15C568.848 1242.6 565.77 1254.11 562.581 1265.62C561.055 1271.38 559.308 1277.1 557.977 1282.89L554.233 1300.36L550.517 1317.86C549.353 1323.71 547.883 1329.48 547.079 1335.42L541.56 1370.77C540.007 1382.62 538.953 1394.51 537.65 1406.38C533.379 1453.97 532.935 1501.97 536.457 1549.75L539.896 1585.53C541.449 1597.4 543.28 1609.26 544.999 1621.11C545.47 1624.07 545.803 1627.04 546.385 1629.98L548.105 1638.8L551.571 1656.44C553.679 1668.25 556.701 1679.84 559.585 1691.49C571.232 1738.02 586.679 1783.58 605.786 1827.59C625.115 1871.52 648.077 1913.81 674.31 1953.99C700.544 1994.18 730.05 2032.22 762.468 2067.64C795.081 2102.88 830.632 2135.41 868.569 2164.86C906.533 2194.26 946.855 2220.74 989.228 2243.37C1031.66 2265.92 1075.92 2284.91 1121.4 2300.22L1138.51 2305.77C1144.22 2307.6 1149.9 2309.54 1155.7 2311.01L1190.42 2320.35C1202.09 2323.02 1213.8 2325.48 1225.5 2328.01L1234.26 2329.89L1243.11 2331.36L1260.83 2334.25L1278.55 2337.08C1284.46 2337.99 1290.45 2338.43 1296.38 2339.16L1314.24 2341.04L1323.17 2341.98C1326.14 2342.34 1329.13 2342.59 1332.13 2342.71L1368.01 2344.56C1374 2344.98 1379.99 2344.84 1385.98 2344.84L1403.95 2344.84C1409.94 2344.73 1415.93 2344.84 1421.92 2344.62L1439.86 2343.62L1457.81 2342.59C1460.8 2342.4 1463.8 2342.32 1466.76 2342.01L1475.69 2341.04C1487.59 2339.71 1499.51 2338.46 1511.41 2337.02L1546.88 2331.2C1593.97 2322.41 1640.31 2309.87 1685.34 2293.68C1573.31 2315.67 1460.16 2313.7 1355.31 2290.71L1372.86 2290.49C1378.72 2290.32 1384.54 2289.79 1390.39 2289.46L1407.86 2288.3L1416.57 2287.71C1419.48 2287.49 1422.37 2287.05 1425.25 2286.74L1459.89 2282.56L1494.16 2276.54C1539.61 2267.55 1584.01 2254.74 1626.77 2238.35C1582.54 2245.92 1538.17 2249.69 1494.3 2249.83C1450.37 2249.78 1406.97 2245.48 1364.71 2238.16C1408 2238.19 1451.12 2234.77 1493.55 2227.62C1535.9 2220.08 1577.44 2209.01 1617.65 2194.59L1632.65 2188.99C1637.64 2187.08 1642.69 2185.41 1647.54 2183.17L1676.88 2170.44C1686.48 2165.83 1695.96 2160.98 1705.5 2156.29L1712.63 2152.74L1719.59 2148.83L1733.48 2141.01C1770.31 2119.83 1805.23 2095.65 1837.84 2068.8C1758.11 2124.96 1667.79 2164.36 1574.22 2184.39C1480.63 2204.55 1383.96 2205.16 1291.39 2187.35C1301.59 2180.45 1311.58 2172.35 1321.17 2164.7C1289.61 2161.87 1258.33 2155.82 1227.41 2148.7L1204.4 2142.6C1196.66 2140.79 1189.23 2137.99 1181.63 2135.66L1170.29 2132.06C1168.4 2131.45 1166.49 2130.89 1164.63 2130.23L1159.06 2128.12L1136.79 2119.74C1078 2096.01 1022.15 2064.64 972.035 2025.46L962.578 2018.22C959.417 2015.81 956.505 2013.12 953.427 2010.57L935.235 1995.12C923.699 1984.17 911.719 1973.68 900.876 1961.98C889.506 1950.83 879.218 1938.66 868.597 1926.76C863.439 1920.69 858.585 1914.37 853.566 1908.21L846.106 1898.89L839.09 1889.21C819.9 1863.76 803.178 1836.52 787.843 1808.6L776.667 1787.47L766.517 1765.84C762.94 1758.71 760.111 1751.25 757.033 1743.93L752.457 1732.89C751.709 1731.06 750.905 1729.23 750.184 1727.37L748.187 1721.74L740.117 1699.25C737.538 1691.71 735.43 1684.06 733.045 1676.46L729.551 1665.03L726.64 1653.47C724.754 1645.73 722.591 1638.08 720.899 1630.31C717.849 1614.7 714.327 1599.17 712.33 1583.39C709.585 1567.72 708.42 1551.83 706.728 1536.03C706.063 1528.09 705.896 1520.16 705.425 1512.23L704.787 1500.34L704.787 1488.41L704.787 1464.56L705.98 1440.74C706.229 1436.78 706.229 1432.78 706.673 1428.84L707.893 1416.97C708.781 1409.07 709.28 1401.11 710.417 1393.24C712.968 1377.51 714.77 1361.65 718.459 1346.15L723.284 1322.77C725.253 1315.06 727.444 1307.44 729.468 1299.75L732.574 1288.25C733.101 1286.33 733.572 1284.39 734.127 1282.51L736.04 1276.88L743.584 1254.27C744.887 1250.53 745.94 1246.68 747.466 1243.02L751.903 1231.98L760.721 1209.88C763.966 1202.64 767.46 1195.51 770.788 1188.33C774.227 1181.2 777.249 1173.83 781.27 1166.98C788.952 1153.11 795.996 1138.88 804.759 1125.63C808.974 1118.92 813.023 1112.1 817.321 1105.44L830.993 1085.97L837.787 1076.21C840.117 1072.99 842.668 1069.97 845.108 1066.84L859.833 1048.15C862.191 1044.96 864.936 1042.1 867.571 1039.11L875.474 1030.2L883.35 1021.28L887.288 1016.81L891.475 1012.57L887.149 1016.51L883.072 1020.69L874.892 1029.04C869.512 1034.67 863.827 1040.05 858.613 1045.85L843.195 1063.48L835.43 1072.3L828.22 1081.56L813.744 1100.12C811.22 1103.14 809.141 1106.47 806.894 1109.68L800.211 1119.39L793.5 1129.09C791.254 1132.34 788.952 1135.53 786.983 1138.94L774.698 1159.13L768.542 1169.25L762.996 1179.7L751.82 1200.64C749.851 1204.08 748.381 1207.77 746.689 1211.35L741.725 1222.16L736.734 1232.98C735.097 1236.58 733.295 1240.16 731.964 1243.9C720.15 1273.38 709.169 1303.47 701.349 1334.61C705.924 1302.78 713.772 1271.52 722.646 1240.44C723.617 1236.5 725.059 1232.73 726.334 1228.9L730.245 1217.45L734.155 1205.97C735.514 1202.14 736.623 1198.23 738.259 1194.54L747.411 1172.02L751.986 1160.74L757.199 1149.75L767.682 1127.71C769.346 1123.96 771.37 1120.44 773.312 1116.89L779.191 1106.19L785.07 1095.46C787.066 1091.91 788.896 1088.22 791.143 1084.84L804.149 1064.06L810.666 1053.64L817.765 1043.63L831.964 1023.52C836.789 1016.89 842.113 1010.63 847.188 1004.14L854.87 994.459L858.724 989.606L862.829 985.002C836.401 1010.6 810.749 1037.5 788.425 1067.17L779.828 1078.15C776.861 1081.76 774.448 1085.72 771.731 1089.49L755.785 1112.46C750.683 1120.25 745.996 1128.32 741.06 1136.25L733.711 1148.2C731.271 1152.2 729.246 1156.41 726.972 1160.51L713.689 1185.31C709.529 1193.71 705.758 1202.31 701.764 1210.82L695.83 1223.63C693.861 1227.9 692.308 1232.37 690.533 1236.72L680.162 1263.07C667.821 1298.73 656.729 1335.19 649.602 1372.69C652.098 1349.64 656.95 1326.99 661.304 1304.19L669.707 1270.44C670.456 1267.64 671.038 1264.78 671.898 1262.01L674.504 1253.72L679.69 1237.11C681.465 1231.59 683.074 1225.99 684.959 1220.5L691.116 1204.22L697.272 1187.91C698.326 1185.22 699.241 1182.45 700.433 1179.79L703.983 1171.83C708.753 1161.26 713.329 1150.53 718.293 1140.02L734.321 1109.02C756.756 1068.25 782.851 1029.43 812.302 993.183L835.014 966.506L859.196 941.104C863.134 936.778 867.432 932.812 871.703 928.819L884.487 916.811L890.893 910.793C893 908.769 895.163 906.772 897.437 904.942L910.887 893.655C787.482 974.27 686.207 1095.4 626.363 1239.05C641.116 1189.49 661.637 1141.71 686.069 1096.15C710.583 1050.61 739.507 1007.38 772.313 967.31C838.453 887.554 920.094 820.777 1011.52 771.387C912.884 816.09 822.285 881.315 747.355 963.067C672.036 1044.51 613.939 1143.43 576.835 1250.75C611.249 1119.75 677.971 996.4 770.816 896.428L769.873 895.513L769.984 895.541Z" fill="#E8A5AC"/>
<path d="M2130.92 2203.88L2152.77 2180.85C2156.48 2177.07 2159.83 2172.96 2163.32 2168.98L2173.67 2156.97L2184.01 2144.93L2189.18 2138.92C2190.86 2136.89 2192.46 2134.78 2194.08 2132.7L2213.6 2107.68C2216.8 2103.47 2220.22 2099.43 2223.21 2095.05L2232.35 2082.11L2250.61 2056.16L2267.63 2029.39L2276.12 2015.99C2279.05 2011.58 2281.45 2006.85 2284.14 2002.3L2299.82 1974.72L2303.71 1967.82L2307.3 1960.74L2314.48 1946.6L2321.64 1932.47C2323.99 1927.74 2326.52 1923.09 2328.58 1918.23L2341.56 1889.29C2343.69 1884.45 2345.93 1879.67 2347.96 1874.79L2353.76 1860.04L2365.32 1830.5C2368.88 1820.54 2372.15 1810.49 2375.58 1800.49C2378.88 1790.45 2382.53 1780.52 2385.23 1770.28L2393.89 1739.76L2396.05 1732.15C2396.77 1729.61 2397.28 1727 2397.93 1724.43L2401.53 1708.99C2403.87 1698.67 2406.44 1688.41 2408.57 1678.03L2414.26 1646.8L2417.09 1631.18C2417.88 1625.96 2418.52 1620.69 2419.22 1615.44L2423.37 1583.96C2424.16 1578.74 2424.44 1573.42 2424.93 1568.17L2426.24 1552.33L2427.54 1536.5L2428.19 1528.6C2428.4 1525.96 2428.39 1523.3 2428.51 1520.67C2432.61 1436.03 2426.75 1350.85 2411.02 1267.49C2394.9 1184.17 2368.7 1102.96 2333.75 1025.59C2325.5 1006 2315.32 987.326 2305.8 968.319C2301.17 958.738 2295.64 949.653 2290.42 940.388L2274.55 912.718L2257.35 885.842C2251.55 876.914 2246.04 867.818 2239.67 859.266C2227.24 841.993 2215.29 824.359 2201.72 807.899C2149.1 740.962 2088.88 679.761 2021.64 627.326L1996.35 607.764C1987.81 601.373 1978.97 595.443 1970.27 589.273L1957.18 580.102C1954.99 578.596 1952.83 577.017 1950.61 575.553L1943.86 571.266L1916.81 554.191C1907.9 548.326 1898.5 543.264 1889.28 537.971C1879.98 532.741 1870.75 527.398 1861.42 522.272L1832.88 507.82L1818.61 500.62C1813.82 498.285 1808.91 496.199 1804.06 493.999L1774.87 480.934C1770.04 478.672 1765.03 476.823 1760.09 474.86L1745.21 469.023L1730.31 463.197L1722.85 460.299C1720.36 459.354 1717.81 458.573 1715.31 457.689L1685.02 447.434C1679.95 445.8 1674.96 443.89 1669.82 442.481L1654.44 438.071L1623.68 429.283L1592.55 421.924C1582.17 419.494 1571.8 416.933 1561.27 415.166L1529.81 409.345L1521.95 407.899L1514.01 406.81L1498.16 404.64L1482.31 402.501C1477.02 401.875 1471.74 400.907 1466.43 400.554L1434.56 397.793L1418.61 396.433L1402.62 395.819L1370.64 394.623C1365.3 394.312 1359.99 394.582 1354.65 394.583L1338.65 394.754L1322.66 394.945L1314.67 395.055C1311.99 395.096 1309.33 395.337 1306.69 395.466C1221.46 399.342 1136.76 413.198 1054.93 436.561C1049.75 437.838 1044.72 439.53 1039.66 441.151L1024.49 446.027C1014.4 449.34 1004.22 452.447 994.177 455.938L964.35 467.227C954.41 471.023 944.396 474.603 934.737 479.065C915.312 487.716 895.575 495.692 876.737 505.584L848.195 519.861C838.864 524.937 829.649 530.258 820.366 535.462C783.152 556.092 747.896 580.022 713.345 604.814C704.869 611.236 696.554 617.849 688.165 624.377C679.851 630.99 671.246 637.279 663.355 644.399C647.334 658.363 630.906 671.889 615.842 686.881C608.165 694.24 600.445 701.521 592.833 708.946L570.881 732.033L559.926 743.59C556.264 747.44 552.92 751.572 549.418 755.563L528.645 779.704C526.935 781.727 525.142 783.695 523.497 785.785L518.592 792.062L508.802 804.604L499.023 817.166C495.775 821.373 492.42 825.485 489.465 829.885L471.128 855.91C468.1 860.275 464.966 864.545 462.033 868.984L453.482 882.416C407.655 953.816 369.564 1030.31 342.143 1110.69L331.977 1140.85C328.739 1150.96 326.064 1161.23 323.082 1171.43L318.727 1186.74C318.024 1189.29 317.242 1191.84 316.59 1194.39L314.77 1202.15L307.561 1233.18C304.959 1243.49 303.262 1253.97 301.331 1264.41C299.45 1274.85 297.48 1285.31 295.692 1295.77L291.503 1327.36L289.43 1343.16C288.708 1348.42 288.463 1353.75 287.964 1359.03C296.835 1309.7 308.057 1261.02 323.822 1213.97L329.454 1196.29L335.886 1178.88L342.321 1161.51C344.522 1155.76 346.455 1149.9 348.985 1144.27L363.47 1110.32C364.7 1107.51 365.858 1104.66 367.13 1101.88L371.149 1093.58L379.171 1077.03L387.197 1060.54C389.844 1055.02 392.969 1049.74 395.845 1044.35C401.731 1033.62 407.505 1022.88 413.458 1012.27C426.254 991.464 438.396 970.467 452.457 950.64C465.665 930.322 480.645 911.235 495.082 891.969C502.594 882.529 510.443 873.36 518.075 864.084C521.954 859.488 525.677 854.8 529.662 850.298L541.84 836.998C491.755 905.287 451.443 980.133 420.175 1058.07C415.983 1067.69 412.605 1077.65 409.063 1087.54C405.582 1097.45 401.883 1107.25 398.616 1117.22L389.472 1147.32C387.962 1152.33 386.378 1157.31 384.96 1162.36L381.133 1177.59L373.477 1208.02L367.278 1238.77L364.192 1254.13C363.211 1259.25 362.586 1264.46 361.747 1269.6L357.089 1300.55L364.395 1271L368.082 1256.28L372.432 1241.73L381.138 1212.71C384.306 1203.11 387.814 1193.66 391.138 1184.15C397.449 1165.04 405.578 1146.57 413.085 1127.96L415.938 1121L419.1 1114.18L425.467 1100.55L431.814 1086.94C433.979 1082.43 435.917 1077.84 438.36 1073.45L452.344 1046.93C454.706 1042.54 456.924 1038.07 459.381 1033.75L466.978 1020.87L482.157 995.167L498.497 970.218L506.665 957.783L508.712 954.684L510.916 951.676L515.304 945.672L532.787 921.669C534.257 919.68 535.654 917.656 537.178 915.714L541.831 909.945L551.138 898.407L560.406 886.891C563.506 883.055 566.533 879.184 569.887 875.563C566.793 879.5 564.046 883.676 561.226 887.817L552.786 900.228L544.345 912.638L540.12 918.834L536.198 925.242C525.825 942.343 514.972 959.152 505.744 976.887L498.554 990.026L494.953 996.586L493.149 999.882L491.509 1003.24L478.395 1030.18C476.251 1034.69 473.941 1039.13 471.931 1043.68L466.035 1057.45L454.252 1084.95L443.807 1112.97L438.588 1126.96C436.907 1131.64 435.515 1136.46 433.967 1141.18L424.885 1169.64L423.75 1173.19L422.799 1176.8L420.877 1184.02L417.022 1198.45C411.477 1217.58 407.738 1237.14 403.477 1256.57L401.901 1263.85L400.681 1271.21L398.261 1285.92L395.841 1300.64C395.048 1305.55 394.102 1310.42 393.643 1315.37L390.232 1344.98C389.712 1349.92 388.95 1354.84 388.653 1359.8L387.67 1374.67L385.724 1404.39L385.24 1434.17L384.992 1449.05C384.926 1454.01 385.253 1458.98 385.368 1463.94L386.359 1493.67C386.424 1498.63 386.939 1503.57 387.324 1508.5L388.552 1523.33L389.768 1538.15L390.38 1545.54C390.608 1548 391.016 1550.46 391.324 1552.92C400.671 1631.65 419.445 1709.12 447.065 1783.31L437.016 1750.6C435.374 1745.15 433.592 1739.73 432.058 1734.24L427.88 1717.67L423.694 1701.12L421.592 1692.85C420.865 1690.11 420.197 1687.34 419.698 1684.55L413.046 1651.11C405.167 1606.39 399.288 1561.32 398.044 1516.07L397.253 1499.12L397.306 1482.14C397.434 1470.83 397.224 1459.55 397.606 1448.27L399.419 1414.46L399.86 1406.02C400.055 1403.21 400.41 1400.42 400.674 1397.6L402.415 1380.76C404.21 1358.28 408.325 1336.09 411.552 1313.84L418.257 1280.78L419.935 1272.5C420.464 1269.74 421.065 1267.01 421.797 1264.28L425.97 1247.94L430.124 1231.6L432.212 1223.45L434.687 1215.39L444.572 1183.21C448.069 1172.57 452.099 1162.08 455.842 1151.5C457.78 1146.24 459.565 1140.94 461.607 1135.72L468.072 1120.2L474.517 1104.69C476.662 1099.52 478.745 1094.32 481.241 1089.31L495.611 1058.97C497.889 1053.85 500.667 1049 503.278 1044.05L511.174 1029.26L519.05 1014.48L527.633 1000.07C549.866 961.308 575.786 924.844 603.366 889.908C610.424 881.3 617.346 872.589 624.499 864.056L646.801 839.239C654.03 830.791 662.142 823.155 669.913 815.197C677.782 807.365 685.329 799.199 693.712 791.899C691.951 796.257 690.059 800.432 688.454 804.881L683.683 818.126L674.434 844.266C755.941 754.52 855.611 681.46 965.979 630.431C1021.12 604.889 1078.96 584.603 1138.12 570.238C1197.3 555.911 1257.88 547.43 1318.76 545.024C1440.52 540.079 1563.34 560.01 1677.79 602.619C1792.3 645.145 1898.38 710.354 1987.73 793.409C2077.21 876.366 2149.7 977.135 2199.9 1088.16C2250.26 1199.22 2278.76 1319.94 2282.21 1441.35C2285.86 1562.75 2264.68 1684.75 2220.68 1798.01C2176.8 1911.31 2110.17 2015.78 2025.72 2103.26C2110.49 2019.48 2178.92 1918.53 2225.76 1807.88C2272.69 1697.27 2297.99 1576.98 2299.05 1455.79C2303.72 1576.94 2284.17 1699.45 2241.74 1814.24C2199.42 1929.07 2134.29 2036.1 2050.56 2127.05C2148.84 2029.82 2226.82 1910.8 2274.97 1779.65C2323.51 1648.79 2344.2 1506.55 2331.91 1365.79C2332.52 1371.11 2333.43 1376.42 2333.82 1381.76L2335.07 1397.8C2335.83 1408.5 2336.91 1419.17 2337.42 1429.88L2338.3 1462.04L2338.54 1470.08C2338.64 1472.77 2338.68 1475.44 2338.59 1478.11L2338.23 1494.2C2338.03 1537.13 2333.49 1579.92 2327.58 1622.43L2322.16 1654.18L2320.81 1662.13C2320.29 1664.77 2319.67 1667.38 2319.11 1670L2315.65 1685.73L2312.16 1701.47C2311.57 1704.09 2311.03 1706.74 2310.4 1709.33L2308.28 1717.11L2299.8 1748.22C2298.48 1753.43 2296.75 1758.52 2295.1 1763.65L2290.11 1778.99C2286.76 1789.21 2283.65 1799.5 2279.62 1809.49L2268.2 1839.68C2264.19 1849.67 2259.7 1859.44 2255.46 1869.34L2249.02 1884.15C2246.79 1889.03 2244.29 1893.82 2241.96 1898.66L2227.66 1927.64L2211.99 1955.91C2209.36 1960.61 2206.82 1965.37 2204.11 1970.02L2195.61 1983.76C2189.89 1992.89 2184.36 2002.17 2178.48 2011.21L2160.14 2037.85L2155.56 2044.51L2153.27 2047.86L2150.83 2051.08L2141.02 2063.95L2131.22 2076.83C2127.92 2081.09 2124.76 2085.5 2121.2 2089.56C2107.25 2106.03 2093.7 2122.89 2078.64 2138.43L2067.61 2150.31L2062.1 2156.26C2060.22 2158.2 2058.25 2160.04 2056.32 2161.96L2033.12 2184.63L2027.31 2190.29L2021.24 2195.66L2009.09 2206.4L1996.92 2217.16C1994.88 2218.93 1992.89 2220.78 1990.8 2222.5L1984.46 2227.59L1959.08 2247.89C1956.96 2249.55 1954.89 2251.32 1952.7 2252.92L1946.12 2257.68L1932.94 2267.18C2047.42 2193.83 2147.08 2095.6 2223.26 1980.38C2299.21 1865.01 2351.6 1732.87 2375.03 1594.26C2352.58 1780.19 2277.74 1959.7 2160.03 2106.17C2156.54 2110.91 2152.65 2115.3 2148.87 2119.79L2137.46 2133.22L2126.05 2146.64C2122.26 2151.11 2118.07 2155.27 2114.11 2159.6L2089.98 2185.29L2064.63 2209.8C2060.34 2213.82 2056.29 2218.08 2051.83 2221.93L2038.55 2233.55L2025.28 2245.18C2020.85 2249.06 2016.49 2253 2011.81 2256.56L1984.12 2278.47L1977.19 2283.93L1970.01 2289.05L1955.64 2299.32C1936.76 2313.41 1916.6 2325.62 1896.81 2338.41C1894.36 2340.04 1891.82 2341.53 1889.25 2342.96L1881.59 2347.38L1866.25 2356.14L1850.91 2364.92C1845.77 2367.78 1840.44 2370.31 1835.2 2373.03L1803.65 2389.02L1771.36 2403.46L1755.19 2410.65L1738.69 2417.04L1705.65 2429.77L1740.45 2417.63C1746.23 2415.56 1752.11 2413.67 1757.82 2411.43L1774.92 2404.49L1792.02 2397.52C1797.69 2395.13 1803.51 2393.04 1809.03 2390.31L1842.52 2374.68L1850.91 2370.75L1859.08 2366.44L1875.43 2357.78C1886.3 2351.94 1897.37 2346.43 1907.84 2339.87L1939.67 2320.87C1950.03 2314.16 1960.28 2307.21 1970.59 2300.38C1975.7 2296.88 1980.98 2293.63 1985.96 2289.95L2000.88 2278.93L2015.8 2267.88L2023.27 2262.35C2025.75 2260.5 2028.07 2258.46 2030.5 2256.52L2059.24 2232.93C2064.13 2229.1 2068.58 2224.77 2073.2 2220.65L2086.99 2208.16L2100.78 2195.63L2113.96 2182.5L2127.14 2169.32C2131.47 2164.88 2136.06 2160.65 2140.14 2155.96L2165.22 2128.36C2167.27 2126.03 2169.45 2123.79 2171.43 2121.38L2177.35 2114.18L2189.2 2099.77L2201.06 2085.33C2204.93 2080.46 2208.54 2075.39 2212.29 2070.43L2223.44 2055.45L2229.02 2047.95C2230.9 2045.47 2232.74 2042.95 2234.45 2040.34L2255.31 2009.3L2260.51 2001.51L2265.35 1993.51L2275.03 1977.51L2284.71 1961.45C2287.91 1956.08 2290.71 1950.51 2293.75 1945.05C2299.63 1934.04 2305.78 1923.13 2311.44 1911.96L2327.68 1878.13L2331.73 1869.66L2335.39 1861.01L2342.72 1843.7L2350.03 1826.37C2352.48 1820.61 2354.43 1814.64 2356.67 1808.78C2360.94 1797 2365.42 1785.27 2369.49 1773.38L2380.74 1737.41L2383.55 1728.41C2384.43 1725.39 2385.15 1722.33 2385.96 1719.29L2390.72 1701.03L2395.46 1682.76C2396.29 1679.71 2396.98 1676.64 2397.59 1673.57L2399.53 1664.32C2402.09 1651.99 2404.76 1639.64 2407.19 1627.29C2411.06 1602.38 2415.59 1577.49 2417.8 1552.31C2413.46 1612.5 2404.01 1672.33 2389.55 1730.98C2374.9 1789.58 2355.03 1846.85 2330.61 1902.16C2281.66 2012.64 2214.15 2115.41 2130.1 2203.18L2130.91 2203.96L2130.92 2203.88Z" fill="#F3CFCE"/>
</g>
<defs>
<linearGradient id="paint0_linear_2024_14872" x1="862.751" y1="1779.89" x2="1871.43" y2="1411" gradientUnits="userSpaceOnUse">
<stop stop-color="#EFAEA9"/>
<stop offset="1" stop-color="#A0A0A1"/>
</linearGradient>
</defs>
</svg>
