<svg width="121" height="36" viewBox="0 0 121 36" fill="none" xmlns="http://www.w3.org/2000/svg">
<path d="M15.6986 28.2827C16.2466 28.9338 16.8268 29.5592 17.4521 30.1523C20.4887 33.0406 24.3827 35.1165 28.728 35.9998V33.4016C25.1176 32.5635 21.8813 30.7906 19.3282 28.36C18.5224 27.5928 17.7874 26.7612 17.1233 25.8779C16.7301 26.6193 16.3046 27.3479 15.8468 28.0506C15.7953 28.128 15.7437 28.2053 15.6921 28.2827M11.7659 25.7683C11.0825 26.6967 10.3217 27.5606 9.48362 28.36C6.9306 30.7906 3.69418 32.5635 0.0838459 33.4016V35.9998C4.42914 35.1165 8.32959 33.0406 11.3661 30.1523C12.0173 29.5334 12.6298 28.8823 13.1971 28.1924L13.1068 28.057C12.6233 27.3221 12.1785 26.5549 11.7723 25.7748M0.0838459 31.7641C3.13974 30.9389 5.87973 29.3787 8.07172 27.2898C9.71571 25.7232 11.0567 23.8665 11.9851 21.8034C12.5911 23.499 13.397 25.0914 14.3962 26.5871C15.3569 25.2977 16.1305 23.6021 16.8268 21.8099C17.7552 23.8729 19.0961 25.7297 20.7401 27.2963C22.9321 29.3787 25.6657 30.9389 28.7216 31.7641V29.1143C26.4006 28.3665 24.3182 27.1222 22.6227 25.504C19.7731 22.7963 18.0066 19.0634 18.0066 14.9631V3.59058H15.344V14.9567C15.344 16.9553 15.0152 19.2891 14.4027 21.1071C13.7902 19.2891 13.4614 16.9617 13.4614 14.9567V3.59058H10.7988V14.9567C10.7988 19.057 9.03233 22.7963 6.18275 25.4976C4.48073 27.1158 2.39832 28.36 0.0773926 29.1079V31.7576L0.0838459 31.7641ZM19.5926 14.2797V12.1458H22.2552V14.7052C22.2552 17.6967 23.5446 20.4173 25.6205 22.3901C26.5231 23.2476 27.574 23.9632 28.7344 24.4983V27.2512C26.8454 26.5678 25.1434 25.5105 23.738 24.1759C21.185 21.7454 19.599 18.3929 19.599 14.7052V14.2797H19.5926ZM6.54378 14.2797V12.1458H9.2064V14.7052C9.2064 18.3929 7.62044 21.7454 5.06742 24.1759C3.66842 25.5105 1.97283 26.5613 0.0902992 27.2447V24.4854C1.24432 23.9503 2.28873 23.2347 3.18486 22.3837C5.26081 20.4109 6.54378 17.6902 6.54378 14.6988V14.2733V14.2797Z" fill="white"/>
<path d="M66.1724 18.5868H63.8773V3.55876H66.1724V9.44489H66.5527C67.797 9.44489 68.2032 8.09746 68.2032 7.09173V3.55876H70.4983V6.99502C70.4983 8.57454 69.9117 9.76079 68.777 10.5344C70.0084 11.4048 70.4983 12.4943 70.4983 14.0739V18.5803H68.2032V13.9771C68.2032 13.0036 67.739 11.8238 66.5721 11.8367H66.1724V18.5868ZM105.17 18.5868V3.55876H107.214V12.3396L109.574 3.55876H112.133V18.5868H110.064V8.1297L107.246 18.6061L105.164 18.5868H105.17ZM113.764 18.5868V3.55876H115.808V12.3396L118.168 3.55876H120.727V18.5868H118.658V8.1297L115.84 18.6061L113.758 18.5868H113.764ZM119.773 1.76004H114.718V0H119.773V1.76004ZM99.323 18.5868H97.0278V3.55876H99.323V9.44489H99.7033C100.948 9.44489 101.354 8.09746 101.354 7.09173V3.55876H103.649V6.99502C103.649 8.57454 103.062 9.76079 101.928 10.5344C103.159 11.4048 103.649 12.4943 103.649 14.0739V18.5803H101.354V13.9771C101.354 13.0036 100.89 11.8238 99.7227 11.8367H99.323V18.5868ZM57.7268 18.561H55.4316V3.53297H62.2526V9.56738H59.9123V5.67983H57.7268V16.4141H59.9123V12.5266H62.2526V18.561H57.7332H57.7268ZM90.8774 18.561H88.5822V3.53297H95.4032V9.56738H93.0629V5.67983H90.8838V16.4141H93.0629V12.5266H95.4032V18.561H90.8838H90.8774ZM51.4667 5.67983H49.3263V16.4141H51.4667V5.67983ZM49.2812 18.561H46.986V3.53297H53.807V18.561H49.2876H49.2812ZM76.6037 5.67983H74.4632V16.4141H76.6037V5.67983ZM74.4246 18.561H72.1294V3.53297H78.9504V18.561H74.431H74.4246ZM82.8702 5.67983V9.70922C83.7276 9.75435 84.7656 9.70922 84.7656 8.17483V6.80806V5.67983H82.8766H82.8702ZM82.8702 11.8625V16.4141H84.7591C84.7591 15.4406 84.7591 14.4671 84.7591 13.4936C84.7591 11.9592 83.7212 11.8174 82.8637 11.8625M87.0543 6.1827V8.02654C87.0543 9.22569 86.5579 10.096 85.7713 10.6569C86.6159 11.3274 87.0543 12.3589 87.0543 13.6483V18.5674C85.6553 18.5674 84.2627 18.5674 82.8637 18.5674H80.5685V3.53297H82.8637C84.2627 3.53297 85.6553 3.53297 87.0543 3.53297V6.1827ZM40.5197 13.6032C41.1192 10.3862 41.9058 6.80161 42.2668 3.5652H45.3549V18.5932H43.3499V12.6491L43.5885 7.27869C43.2983 9.00649 42.1701 15.3762 40.7388 18.4256L40.5261 18.432H40.3134C38.8757 15.3697 37.7475 9.00004 37.4638 7.27224L37.7023 12.6426V18.5868H35.6973V3.55876H38.7854C39.1464 6.79516 39.933 10.3862 40.5325 13.5968" fill="white"/>
<path d="M63.2325 23.1V29.792C64.09 29.8371 65.1279 29.6953 65.1279 28.1609V26.7941V23.1H63.2389H63.2325ZM67.4231 26.1688V28.0126C67.4231 30.3271 66.2303 31.9389 63.9997 31.9389H63.2325V35.9811H60.9373V20.9531C63.0971 20.966 65.2633 20.9531 67.4231 20.9531V26.1688ZM68.0549 20.9531H75.1531V23.1H72.7483V35.9811H70.4532V23.1H68.0484V20.9531H68.0549ZM57.0369 23.1H54.8965V33.8343H57.0369V23.1ZM54.8578 35.9811H52.5627V20.9531H59.3836V35.9811H54.8642H54.8578ZM37.9859 35.9811H35.6908V20.9531H42.5117V26.9875H40.1714V23.1H37.9859V33.8343H40.1714V29.9467H42.5117V35.9747H37.9924L37.9859 35.9811ZM46.4251 35.9811H44.1299V20.9531H50.9509V35.9811H48.6106V23.1H46.4251V35.9811Z" fill="white"/>
</svg>
