<svg width="92" height="36" viewBox="0 0 92 36" fill="none" xmlns="http://www.w3.org/2000/svg">
<path d="M0.931396 21.7669V0.434326H7.47853V7.65266H14.006V0.434326H20.5531V21.7669H14.006V13.351H7.47853V21.7669H0.931396Z" fill="white"/>
<path d="M28.1988 31.1368C28.3831 31.1565 28.5739 31.1697 28.7319 31.1697C29.0016 31.1697 29.4557 31.0841 29.4557 30.5183C29.4557 30.0906 29.2319 29.9129 28.6989 29.9129C28.5739 29.9129 28.4752 29.9129 28.3304 29.9195H28.1857V31.1434L28.1988 31.1368ZM26.5012 34.7427V28.4784C26.5012 28.3929 26.5736 28.3205 26.6591 28.3205C26.8631 28.3205 27.2184 28.3205 27.4487 28.3139C27.8567 28.3139 28.2976 28.3008 28.5608 28.3008C30.9822 28.3008 31.2454 29.8537 31.2454 30.5248C31.2454 31.6435 30.3966 32.7752 28.7779 32.7752C28.6595 32.7752 28.4094 32.7752 28.1988 32.7621V34.7427C28.1988 34.8348 28.1265 34.9072 28.0343 34.9072H26.6591C26.567 34.9072 26.4946 34.8348 26.4946 34.7427" fill="white"/>
<path d="M37.0294 31.9659L36.391 30.1761L35.7462 31.9659H37.0294ZM38.0426 34.7953L37.6018 33.5714H35.1672L34.7263 34.7953C34.7 34.8611 34.6407 34.9006 34.5749 34.9006H33.1997C33.0879 34.9006 33.0089 34.7822 33.0484 34.6769L35.6541 28.4127C35.6804 28.3534 35.7397 28.314 35.8055 28.314H37.049C37.1148 28.314 37.1741 28.3534 37.2005 28.4127L39.8061 34.6769C39.8522 34.7822 39.7732 34.9006 39.6548 34.9006H38.194C38.1282 34.9006 38.0624 34.8545 38.0426 34.7953Z" fill="white"/>
<path d="M46.2617 33.2956V29.9266H45.2154L45.1233 30.8807C45.0378 31.8085 44.768 32.8152 44.5377 33.2956H46.2617ZM47.2092 35.8289V34.9077H43.531V35.8289C43.531 35.921 43.4586 35.9934 43.3665 35.9934H42.0833C41.9912 35.9934 41.9188 35.921 41.9188 35.8289V33.4601C41.9188 33.368 41.9912 33.2956 42.0833 33.2956H42.6624C42.9256 32.9008 43.4323 31.6177 43.5178 29.7029L43.5704 28.4724C43.5704 28.3868 43.6428 28.321 43.7283 28.321H47.7949C47.887 28.321 47.9594 28.3934 47.9594 28.4855V33.3022H48.6568C48.7489 33.3022 48.8213 33.3745 48.8213 33.4667V35.8355C48.8213 35.9276 48.7489 36 48.6568 36H47.3737C47.2816 36 47.2092 35.9276 47.2092 35.8355" fill="white"/>
<path d="M55.4474 34.7432V31.2294L52.8811 34.8353C52.8482 34.8748 52.8022 34.9011 52.7496 34.9011H51.5388C51.4466 34.9011 51.3743 34.8287 51.3743 34.7366V28.4724C51.3743 28.3802 51.4466 28.3079 51.5388 28.3079H52.9141C53.0062 28.3079 53.0786 28.3802 53.0786 28.4724V31.9795L55.6447 28.3737C55.6776 28.3342 55.7237 28.3079 55.7764 28.3079H56.9871C57.0792 28.3079 57.1516 28.3802 57.1516 28.4724V34.7366C57.1516 34.8287 57.0792 34.9011 56.9871 34.9011H55.6119C55.5198 34.9011 55.4474 34.8287 55.4474 34.7366" fill="white"/>
<path d="M62.7708 29.8148C61.7706 29.8148 61.0665 30.5517 61.0665 31.6111C61.0665 32.6705 61.8167 33.4075 62.7708 33.4075C64.0276 33.4075 64.475 32.4797 64.475 31.6111C64.475 30.5715 63.7578 29.8148 62.7708 29.8148ZM62.7708 35.0064C60.7178 35.0064 59.2767 33.6049 59.2767 31.6045C59.2767 29.6042 60.7441 28.2026 62.7708 28.2026C64.7974 28.2026 66.2648 29.6042 66.2648 31.6045C66.2648 33.6049 64.7974 35.0064 62.7708 35.0064Z" fill="white"/>
<path d="M37.2861 3.26371C35.1213 1.09887 32.4103 0 29.1202 0C25.8302 0 23.0863 1.09887 20.9214 3.26371C20.7898 3.39531 20.678 3.53349 20.553 3.6651V18.5229C20.678 18.6545 20.7898 18.7927 20.9214 18.9243C23.0863 21.0891 25.8302 22.188 29.1202 22.188C32.4103 22.188 35.1213 21.122 37.2861 18.9572C39.451 16.7923 40.5169 14.1735 40.5169 11.094C40.5169 8.01452 39.451 5.42855 37.2861 3.26371ZM34.1934 18.1083L29.1005 14.3906L24.0075 18.1083L25.9684 12.1205L20.8622 8.42906L27.166 8.44222L29.1005 2.4412L31.0351 8.44222L37.3387 8.42906L32.2326 12.1205L34.1934 18.1083Z" fill="white"/>
<path d="M55.4471 11.7718C54.5654 10.7387 53.6507 10.1268 52.7361 9.94252C53.3151 9.66616 53.8613 9.17923 54.4403 8.48174C55.0194 7.77768 55.2958 6.89595 55.2958 5.8892C55.2958 4.09284 54.6575 2.75051 53.3743 1.83588C52.0912 0.888351 50.4791 0.434326 48.4985 0.434326H37.6809V3.70462C39.5694 5.77734 40.5169 8.22512 40.5169 11.1006C40.5169 13.9761 39.5694 16.4502 37.6809 18.5295V21.7669H48.9592C51.3082 21.7669 53.1967 21.1878 54.6246 20.0627C56.059 18.9375 56.7894 17.4438 56.7894 15.5816C56.7894 14.0551 56.3354 12.7785 55.4471 11.7718ZM44.2346 5.5273H47.5576C48.4393 5.5273 49.1105 6.13924 49.1105 7.02097C49.1105 7.78426 48.4393 8.38962 47.5576 8.38962H44.2346V5.5273ZM47.676 16.4963H44.2346V12.9628H47.676C48.8012 12.9628 49.6237 13.6932 49.6237 14.7591C49.6237 15.8251 48.8604 16.4963 47.676 16.4963Z" fill="white"/>
<path d="M72.5747 3.26371C70.4099 1.09887 67.699 0 64.4089 0C61.1189 0 58.375 1.09887 56.2101 3.26371C55.8087 3.6651 55.46 4.07964 55.1376 4.50735C55.2363 4.93505 55.2956 5.38907 55.2956 5.88258C55.2956 6.88933 55.0192 7.77106 54.4401 8.47513C53.9729 9.04101 53.5255 9.42924 53.0649 9.71876C53.0517 9.82404 53.0386 9.92274 53.0254 10.0346C53.8413 10.2781 54.6573 10.8439 55.4469 11.7717C56.3286 12.7785 56.7892 14.055 56.7892 15.5816C56.7892 16.7397 56.4734 17.7333 55.914 18.6084C56.0127 18.7137 56.1048 18.8256 56.2101 18.9309C58.375 21.0957 61.1189 22.1946 64.4089 22.1946C67.699 22.1946 70.4099 21.1286 72.5747 18.9638C74.7396 16.7989 75.8056 14.18 75.8056 11.1006C75.8056 8.0211 74.7396 5.43514 72.5747 3.27029V3.26371Z" fill="white"/>
<path d="M91.8346 3.14479C89.6895 1.05891 87.018 0.00610352 83.7937 0.00610352C80.5695 0.00610352 77.7598 1.10497 75.595 3.26982C75.0094 3.85544 74.5093 4.47397 74.0881 5.1254C75.2331 6.87569 75.8121 8.85629 75.8121 11.1067C75.8121 13.3571 75.2397 15.3377 74.1013 17.0945C74.5224 17.7394 75.0225 18.3579 75.6016 18.937C77.7664 21.1018 80.5103 22.2007 83.8003 22.2007C87.0904 22.2007 89.6698 21.1808 91.8017 19.1278L83.8398 11.1659L91.8411 3.16454L91.8346 3.14479ZM82.4053 6.94807C81.4907 6.94807 80.7537 6.21111 80.7537 5.29648C80.7537 4.38185 81.4907 3.64488 82.4053 3.64488C83.32 3.64488 84.057 4.38185 84.057 5.29648C84.057 6.21111 83.32 6.94807 82.4053 6.94807Z" fill="white"/>
</svg>
