<svg width="46" height="36" viewBox="0 0 46 36" fill="none" xmlns="http://www.w3.org/2000/svg">
<path d="M43.7418 5.51953H2.81915V30.7H43.7418V5.51953Z" fill="#E52713"/>
<path d="M29.0875 12.9284V13.3856H33.0249C33.2857 13.3856 33.6813 13.3856 33.9422 13.6493C34.203 13.9116 34.203 14.3043 34.203 14.5681V18.5025C34.203 18.7634 34.203 19.159 33.9422 19.4198C33.6799 19.6821 33.2857 19.6821 33.0249 19.6821H31.1228C30.7946 19.6821 30.3675 19.6821 30.2041 19.3209C30.0393 18.9612 30.2686 18.633 30.4664 18.3707L33.0249 14.9637H29.0875L27.5152 17.0606C27.2515 17.4118 27.0236 17.7156 27.0236 18.1084C27.0236 18.5025 27.2343 18.7863 27.5152 19.159L27.9108 19.6821C28.3006 20.2053 28.6962 20.7313 29.2208 20.9936C29.7469 21.2559 30.3675 21.2559 31.2217 21.2559H32.9274C33.9106 21.2559 35.387 21.2559 36.3702 20.2727C37.3535 19.288 37.3535 17.8475 37.3535 17.32V15.7463C37.3535 15.2217 37.3535 13.7783 36.3702 12.7965C35.387 11.8132 33.9106 11.8132 32.9274 11.8132H30.2041C29.9418 11.8132 29.6136 11.8132 29.3527 12.0741C29.0875 12.3393 29.0875 12.6661 29.0875 12.9284Z" fill="white"/>
<path d="M24.3676 14.9636H28.3007L23.5808 21.2573H19.6463L24.3676 14.9636Z" fill="white"/>
<path d="M9.02252 16.0759C9.02252 15.815 9.02252 15.4868 9.28482 15.2245C9.54712 14.9636 9.87535 14.9636 10.1376 14.9636H16.728C17.5794 14.9636 18.2043 14.9636 18.7275 15.2245C19.2521 15.4868 19.6463 16.0114 20.0419 16.536L20.4332 17.062C20.7112 17.4332 20.9248 17.717 20.9248 18.1098C20.9248 18.5039 20.6969 18.8078 20.4332 19.1604L18.8594 21.2587H14.9235L17.4805 17.8475C17.6783 17.5866 17.9077 17.2584 17.7443 16.8957C17.578 16.536 17.1537 16.536 16.8241 16.536H13.7439V24.4049H10.5963V16.536H9.02252V16.0759Z" fill="white"/>
<path d="M14.5064 32.8701C15.4309 32.8701 15.4309 33.5567 15.4309 34.0612V34.2719C15.4309 34.7764 15.4309 35.463 14.5064 35.463H14.4219C13.4974 35.463 13.4974 34.7764 13.4974 34.2719V34.0612C13.4974 33.5567 13.4974 32.8701 14.4219 32.8701H14.5064ZM13.9173 34.2074C13.9173 35.0903 13.9173 35.0903 14.4634 35.0903C15.0095 35.0903 15.0095 35.0903 15.0095 34.2074V34.1228C15.0095 33.2399 15.0095 33.2399 14.4634 33.2399C13.9173 33.2399 13.9173 33.2399 13.9173 34.1228V34.2074Z" fill="white"/>
<path d="M17.0763 32.926L17.8603 35.2795V35.4057H17.5034L17.2942 34.775H16.2851L16.0744 35.4057H15.7175V35.2795L16.5016 32.926H17.0763ZM16.685 33.2614C16.685 33.5768 16.5804 33.8921 16.3912 34.4597H17.1895C17.0003 33.8921 16.8957 33.5768 16.8957 33.2614H16.685Z" fill="white"/>
<path d="M19.1561 32.8701C20.0806 32.8701 20.0806 33.5567 20.0806 34.0612V34.2719C20.0806 34.7764 20.0806 35.463 19.1561 35.463H19.0715C18.147 35.463 18.147 34.7764 18.147 34.2719V34.0612C18.147 33.5567 18.147 32.8701 19.0715 32.8701H19.1561ZM18.5684 34.2074C18.5684 35.0903 18.5684 35.0903 19.1145 35.0903C19.6606 35.0903 19.6606 35.0903 19.6606 34.2074V34.1228C19.6606 33.2399 19.6606 33.2399 19.1145 33.2399C18.5684 33.2399 18.5684 33.2399 18.5684 34.1228V34.2074Z" fill="white"/>
<path d="M21.6501 34.6203V34.4239L22.2377 33.6399H22.3223V34.004L21.9654 34.4798L22.0285 34.5644C22.2377 34.8439 22.3438 34.9843 22.3438 35.2782V35.4043H22.2392L21.6501 34.6203ZM22.3639 34.6203V34.4239L22.9515 33.6399H23.0361V34.004L22.6792 34.4798L22.7423 34.5644C22.953 34.8439 23.0576 34.9843 23.0576 35.2782V35.4043H22.953L22.3639 34.6203Z" fill="white"/>
<path d="M23.618 32.926H24.2057C24.8994 32.926 25.2979 32.926 25.2979 33.7874C25.2979 34.6489 24.898 34.6489 24.2057 34.6489H23.9964V35.4057H23.618V32.926ZM23.9964 34.312H24.458C24.8994 34.312 24.8994 34.312 24.8994 33.7874C24.8994 33.2614 24.8994 33.2614 24.458 33.2614H23.9964V34.312Z" fill="white"/>
<path d="M26.423 34.1644L25.5859 33.0507V32.9246H26.0059C26.4474 33.5122 26.6566 33.7573 26.6566 33.9967H26.929V32.9246H27.3074V33.9967H27.5811C27.5811 33.7932 27.7904 33.5137 28.2318 32.9246H28.6518V33.0507L27.8147 34.1644L28.6518 35.2781V35.4042H28.2318C27.7904 34.8165 27.5811 34.5356 27.5811 34.3321H27.3074V35.4042H26.929V34.3321H26.6566C26.6566 34.5356 26.4459 34.8151 26.0059 35.4042H25.5859V35.2781L26.423 34.1644Z" fill="white"/>
<path d="M29.1894 35.4042V35.9431H28.8525V35.0674H29.0661C29.3814 34.3908 29.4345 33.8132 29.4345 33.26V32.9246H30.8706V35.0674H31.1645V35.9431H30.8291V35.4042H29.1894ZM30.4923 35.0688V33.2614H29.7985C29.7985 33.8147 29.7641 34.3966 29.4631 35.0688H30.4923Z" fill="white"/>
<path d="M32.1807 34.4239V34.6203L31.593 35.4043H31.5084V35.0402L31.8653 34.5644L31.8023 34.4798C31.5916 34.2003 31.4869 34.0599 31.4869 33.766V33.6399H31.5916L32.1807 34.4239ZM32.8945 34.4239V34.6203L32.3068 35.4043H32.2222V35.0402L32.5791 34.5644L32.5161 34.4798C32.3054 34.2003 32.2007 34.0599 32.2007 33.766V33.6399H32.3054L32.8945 34.4239Z" fill="white"/>
<path d="M1.87317 0.67334C2.81916 0.67334 2.81916 1.37566 2.81916 1.89166V2.10666C2.81916 2.62265 2.81916 3.32498 1.87317 3.32498H1.78718C0.841186 3.32498 0.841187 2.62265 0.841187 2.10666V1.89166C0.841187 1.37566 0.841186 0.67334 1.78718 0.67334H1.87317ZM1.27118 2.04216C1.27118 2.94515 1.27118 2.94515 1.83018 2.94515C2.38917 2.94515 2.38917 2.94515 2.38917 2.04216V1.95616C2.38917 1.05317 2.38917 1.05317 1.83018 1.05317C1.27118 1.05317 1.27118 1.05317 1.27118 1.95616V2.04216Z" fill="white"/>
<path d="M4.75126 3.26646H4.36426V2.79776H4.2066C3.66194 2.79776 3.24628 2.79776 3.24628 1.83744C3.24628 0.87712 3.66194 0.87712 4.2066 0.87712H4.36426V0.551758H4.75126V0.87712H4.90892C5.45358 0.87712 5.86925 0.87712 5.86925 1.83744C5.86925 2.79776 5.45358 2.79776 4.90892 2.79776H4.75126V3.26646ZM3.65477 1.88044C3.65477 2.45377 3.66194 2.45377 4.0561 2.45377H4.36426V1.22112H4.0561C3.66194 1.22112 3.65477 1.22112 3.65477 1.79444V1.88044ZM5.45932 1.79444C5.45932 1.22112 5.45215 1.22112 5.05799 1.22112H4.74983V2.45377H5.05799C5.45215 2.45377 5.45932 2.45377 5.45932 1.88044V1.79444Z" fill="white"/>
<path d="M6.91846 2.79347C6.91846 2.40647 7.09046 2.06248 7.75695 0.729492H8.29444V3.26646H7.90745V1.20392H7.77845C7.77845 1.59092 7.60645 1.93491 6.93996 3.2679H6.40247V0.730926H6.78946V2.7949H6.91846V2.79347Z" fill="white"/>
<path d="M8.95801 3.26625V0.730713H9.345V2.92369H10.334V0.730713H10.721V2.92369H11.022V3.81951H10.678V3.26768H8.95801V3.26625Z" fill="white"/>
<path d="M11.9422 2.79347C11.9422 2.40647 12.1142 2.06248 12.7807 0.729492H13.3182V3.26646H12.9312V1.20392H12.8022C12.8022 1.59092 12.6302 1.93491 11.9637 3.2679H11.4262V0.730926H11.8132V2.7949H11.9422V2.79347Z" fill="white"/>
<path d="M15.0712 0.730713L15.8738 3.13868V3.26768H15.5083L15.2933 2.62269H14.2613L14.0463 3.26768H13.6808V3.13868L14.4835 0.730713H15.0712ZM14.6698 1.07471C14.6698 1.3972 14.5623 1.7197 14.3688 2.30019H15.1858C14.9923 1.7197 14.8848 1.3972 14.8848 1.07471H14.6698Z" fill="white"/>
<path d="M16.9488 1.07474C16.9387 1.40727 16.9416 1.79857 16.8413 2.58689C16.7624 3.19605 16.6908 3.27488 15.9741 3.27488V2.95669C16.3568 2.95669 16.4184 2.90222 16.4715 2.51236C16.5718 1.8 16.5761 1.4087 16.5861 0.732178H18.0868V3.26915H17.6998V1.07474H16.9488Z" fill="white"/>
<path d="M18.7504 0.730713H19.1374V1.5907H19.3739C20.0619 1.5907 20.4704 1.5907 20.4704 2.42919C20.4704 3.26768 20.0619 3.26768 19.3739 3.26768H18.7504V0.730713ZM19.1374 2.92225H19.6319C20.0619 2.92225 20.0619 2.92225 20.0619 2.42776C20.0619 1.93327 20.0619 1.93327 19.6319 1.93327H19.1374V2.92225Z" fill="white"/>
<path d="M22.3367 0.730713H22.7237V3.26768H22.3367V2.1712H21.3477V3.26768H20.9607V0.730713H21.3477V1.8272H22.3367V0.730713Z" fill="white"/>
<path d="M23.3873 0.730713H23.7743V1.5907H23.9248C24.6128 1.5907 25.0213 1.5907 25.0213 2.42919C25.0213 3.26768 24.6128 3.26768 23.9248 3.26768H23.3873V0.730713ZM23.7743 2.92225H24.1828C24.6128 2.92225 24.6128 2.92225 24.6128 2.42776C24.6128 1.93327 24.6128 1.93327 24.1828 1.93327H23.7743V2.92225ZM25.3652 0.730713H25.7522V3.26768H25.3652V0.730713Z" fill="white"/>
<path d="M26.9318 2.79333C26.9318 2.40633 27.1038 2.06234 27.7703 0.729354H28.3078V3.26632H27.9208V1.20378H27.7918C27.7918 1.59078 27.6198 1.93477 26.9533 3.26776H26.4158V0.730788H26.8028V2.79476H26.9318V2.79333ZM27.3403 0.51579C27.0967 0.51579 26.9218 0.51579 26.6953 0.214794L26.9175 0.0571289C27.0365 0.214794 27.0723 0.246327 27.2758 0.246327H27.4478C27.6514 0.246327 27.6872 0.21336 27.8062 0.0571289L28.0283 0.214794C27.8033 0.51579 27.627 0.51579 27.3833 0.51579H27.3403Z" fill="white"/>
<path d="M31.3092 1.56916C31.1802 1.05317 31.1802 1.05317 30.8003 1.05317C30.3273 1.05317 30.3273 1.05317 30.3273 1.93466V2.06366C30.3273 2.94515 30.3273 2.94515 30.8863 2.94515H31.0297L31.4883 2.83048H31.6173V3.20314C31.13 3.32498 30.9293 3.32498 30.8003 3.32498C29.8973 3.32498 29.8973 2.70865 29.8973 2.10666V1.89166C29.8973 1.33267 29.8973 0.67334 30.7573 0.67334H30.8433C31.6818 0.67334 31.6818 1.23233 31.6818 1.476L31.3092 1.56916Z" fill="white"/>
<path d="M33.915 0.730713V3.26768H33.528V1.07471H32.539V3.26768H32.152V0.730713H33.915Z" fill="white"/>
<path d="M35.5017 0.67334C36.4476 0.67334 36.4476 1.37566 36.4476 1.89166V2.10666C36.4476 2.62265 36.4476 3.32498 35.5017 3.32498H35.4157C34.4697 3.32498 34.4697 2.62265 34.4697 2.10666V1.89166C34.4697 1.37566 34.4697 0.67334 35.4157 0.67334H35.5017ZM34.9011 2.04216C34.9011 2.94515 34.9011 2.94515 35.4601 2.94515C36.0191 2.94515 36.0191 2.94515 36.0191 2.04216V1.95616C36.0191 1.05317 36.0191 1.05317 35.4601 1.05317C34.9011 1.05317 34.9011 1.05317 34.9011 1.95616V2.04216Z" fill="white"/>
<path d="M38.3797 0.730713H38.7667V3.26768H38.3797V2.1712H37.3907V3.26768H37.0037V0.730713H37.3907V1.8272H38.3797V0.730713Z" fill="white"/>
<path d="M40.7333 1.56916C40.6043 1.05317 40.6043 1.05317 40.2245 1.05317C39.7515 1.05317 39.7515 1.05317 39.7515 1.93466V2.06366C39.7515 2.94515 39.7515 2.94515 40.3105 2.94515H40.4538L40.9124 2.83048H41.0415V3.20314C40.5541 3.32498 40.3535 3.32498 40.2245 3.32498C39.3215 3.32498 39.3215 2.70865 39.3215 2.10666V1.89166C39.3215 1.33267 39.3215 0.67334 40.1815 0.67334H40.2675C41.1059 0.67334 41.1059 1.23233 41.1059 1.476L40.7333 1.56916Z" fill="white"/>
<path d="M42.5005 0.67334C43.4465 0.67334 43.4465 1.37566 43.4465 1.89166V2.10666C43.4465 2.62265 43.4465 3.32498 42.5005 3.32498H42.4145C41.4685 3.32498 41.4685 2.62265 41.4685 2.10666V1.89166C41.4685 1.37566 41.4685 0.67334 42.4145 0.67334H42.5005ZM41.8985 2.04216C41.8985 2.94515 41.8985 2.94515 42.4575 2.94515C43.0165 2.94515 43.0165 2.94515 43.0165 2.04216V1.95616C43.0165 1.05317 43.0165 1.05317 42.4575 1.05317C41.8985 1.05317 41.8985 1.05317 41.8985 1.95616V2.04216Z" fill="white"/>
<path d="M44.0012 0.730713H44.6032C45.3127 0.730713 45.7212 0.730713 45.7212 1.6122C45.7212 2.49369 45.3127 2.49369 44.6032 2.49369H44.3882V3.26768H44.0012V0.730713ZM44.3882 2.1497H44.8612C45.3127 2.1497 45.3127 2.1497 45.3127 1.6122C45.3127 1.07471 45.3127 1.07471 44.8612 1.07471H44.3882V2.1497Z" fill="white"/>
</svg>
