<svg width="103" height="36" viewBox="0 0 103 36" fill="none" xmlns="http://www.w3.org/2000/svg">
<path d="M2.30785 17.1016C3.11278 13.7514 3.91771 10.9378 4.94019 8.00085C5.18674 7.29019 5.52757 6.62305 5.93366 6.02116C5.54932 5.21623 4.41086 3.24379 5.43334 1.56867C5.9192 0.770991 6.97064 0.531688 7.75382 1.03205H7.7393C7.08666 0.604204 6.62987 0.40841 5.81044 0.604204C4.46164 0.937778 2.99678 2.40986 4.2368 5.38302C4.33833 5.62957 4.44715 5.87613 4.55592 6.12268C3.85252 7.05814 3.42461 8.02986 3.04027 9.21912H3.77995C3.47538 10.1401 3.18535 11.0683 2.90979 12.0328H2.17737C1.75678 13.5048 1.34346 15.0567 0.930117 16.7753L0.727051 17.6165L1.38688 18.1749C3.35207 19.85 5.12155 21.2713 6.91269 22.5984H9.31293C6.94165 20.9305 4.76614 19.2046 2.30059 17.1089L2.30785 17.1016Z" fill="white"/>
<path d="M7.88416 23.2947C9.59554 24.5275 11.3576 25.6877 13.3518 26.9277C13.8087 26.6594 14.2583 26.3911 14.7151 26.1156C13.1198 25.1366 11.6913 24.2229 10.3425 23.3019H7.89141L7.88416 23.2947Z" fill="white"/>
<path d="M25.2518 20.4806C26.7311 19.2986 27.8334 18.3486 28.6963 17.609C28.4715 16.6735 28.2903 15.9121 28.0147 14.8461H27.7029C27.1735 12.8157 26.6441 10.9955 26.0567 9.21161H26.7529C26.4701 8.37768 26.1583 7.33345 25.2446 6.11518C25.6216 5.27399 25.9553 4.50532 26.0133 3.57711H25.6362C25.7449 1.96 24.824 0.886762 23.5767 0.589446C22.7936 0.408156 22.3367 0.589446 21.6841 1.01729H21.6768C22.46 0.524182 23.5114 0.756233 23.9973 1.56116C25.0198 3.23628 23.8813 5.20147 23.497 6.01365C23.9031 6.62279 24.2439 7.28269 24.4905 7.99334C25.5202 10.9302 26.3179 13.7439 27.1228 17.0941C22.9459 20.6547 19.6028 23.1202 14.7152 26.1079C15.1648 26.3834 15.6217 26.659 16.0713 26.9273C19.1677 25.0129 21.7058 23.258 24.3599 21.184H23.2069C23.5042 20.952 23.8088 20.7199 24.1134 20.4806H25.2446H25.2518Z" fill="white"/>
<path d="M12.0611 9.45809C12.0611 9.45809 12.0466 9.42183 12.0248 9.41458L10.2989 8.8562C10.2989 8.8562 10.2627 8.8562 10.2482 8.8707C10.2337 8.88521 10.2264 8.90696 10.2337 8.92147L10.589 10.5966C10.589 10.5966 10.6035 10.6328 10.6253 10.6401C10.647 10.6401 10.6615 10.6401 10.676 10.6328C11.2344 10.1615 11.655 9.81342 12.0393 9.5161C12.0538 9.5016 12.0611 9.47984 12.0611 9.46534V9.45809Z" fill="white"/>
<path d="M19.1391 8.85686L17.4132 9.41523C17.4132 9.41523 17.377 9.43699 17.377 9.45875C17.377 9.4805 17.377 9.50225 17.3987 9.50951C17.7831 9.80682 18.2109 10.1549 18.762 10.6263C18.7765 10.6408 18.7983 10.6408 18.8128 10.6335C18.8345 10.6335 18.8418 10.6118 18.8491 10.59L19.2044 8.91487C19.2044 8.91487 19.2044 8.87861 19.1899 8.86411C19.1754 8.84961 19.1536 8.84961 19.1391 8.84961V8.85686Z" fill="white"/>
<path d="M15.6361 9.40071C15.4476 9.07438 15.0923 8.87134 14.7152 8.87134C14.3381 8.87134 13.9828 9.07438 13.7943 9.40071C13.671 9.611 13.0764 10.6407 12.0539 12.4174C11.8871 12.7147 11.7928 13.0483 11.7928 13.3818C11.7928 14.7089 11.8001 15.9707 11.8001 16.8771C11.8074 19.7923 17.6303 19.7778 17.6303 16.8626C17.6303 15.9707 17.6303 14.7161 17.6303 13.3818C17.6303 13.041 17.5433 12.7074 17.3693 12.4174L15.6289 9.39345L15.6361 9.40071ZM15.8682 17.6023C15.8682 17.6023 15.8392 17.6313 15.8247 17.6385C15.027 17.7038 14.4107 17.7038 13.6057 17.6385C13.584 17.6385 13.5694 17.624 13.5622 17.6023C13.2431 16.8336 13.0546 16.2462 12.8661 15.4703C12.8661 15.4486 12.8661 15.4268 12.8806 15.4123C13.4825 14.8974 13.9756 14.5348 14.679 14.0998C14.6935 14.0852 14.7225 14.0852 14.737 14.0998C15.4404 14.5348 15.9335 14.8974 16.5353 15.4123C16.5498 15.4268 16.5571 15.4486 16.5499 15.4703C16.3613 16.2462 16.1728 16.8336 15.8537 17.6023H15.8682Z" fill="white"/>
<path d="M21.1257 0.321443C20.444 0.792798 19.7768 1.24965 19.1024 1.72826C18.2613 1.4672 17.3911 1.32942 16.5209 1.31491C15.3679 1.29316 14.1423 1.28591 12.9168 1.31491C12.0394 1.33667 11.1765 1.47445 10.3353 1.72826C9.66088 1.2569 9.00095 0.792798 8.31205 0.321443C7.12278 -0.490737 5.03435 0.408463 4.25842 1.6775C4.65726 1.09011 5.25184 0.734785 5.83197 0.589753C6.64415 0.386708 7.10102 0.589753 7.76092 1.0031H7.77544C7.77544 1.0031 7.80448 1.0321 7.81899 1.03935C8.60941 1.57597 9.39252 2.1271 10.1974 2.69272C11.0604 2.3809 11.9741 2.19961 12.9458 2.17786C14.1351 2.14885 15.3316 2.14885 16.5137 2.17786C17.4854 2.19961 18.399 2.3809 19.262 2.69272C20.0669 2.11984 20.8501 1.57597 21.6405 1.03935C21.655 1.0321 21.6696 1.0176 21.6841 1.01035H21.6912C22.3439 0.582501 22.8008 0.401211 23.584 0.582501C24.2294 0.734785 24.7877 1.09737 25.1648 1.63399C24.3744 0.379456 22.3149 -0.497989 21.1329 0.314191L21.1257 0.321443Z" fill="white"/>
<path d="M34.6501 2.64966V24.2957" stroke="white" stroke-width="0.88" stroke-miterlimit="10"/>
<path fill-rule="evenodd" clip-rule="evenodd" d="M47.0214 5.07097C47.5725 5.07097 49.2041 4.91869 49.9002 7.26096C50.3643 8.83456 51.1113 11.4161 52.1338 14.9984H52.5471C53.6421 11.2203 54.3962 8.63877 54.8023 7.26096C55.5057 4.89693 57.2533 5.07097 57.9495 5.07097H63.352V21.873H57.848V11.9745H57.4782L54.4108 21.873H50.2701L47.2026 11.9673H46.8328V21.873H41.3289V5.07097H47.0286H47.0214ZM71.2563 5.07097V14.9767H71.6986L75.4332 6.82586C76.1584 5.2015 77.703 5.06372 77.703 5.06372H83.0329V21.8657H77.4129V11.96H76.9705L73.3084 20.1108C72.5833 21.7279 70.9662 21.873 70.9662 21.873H65.6363V5.07097H71.2563ZM102.453 13.055C101.67 15.274 99.2039 16.8694 96.4846 16.8694H90.589V21.873H85.2446V13.055H102.453Z" fill="white"/>
<path fill-rule="evenodd" clip-rule="evenodd" d="M96.7384 5.07129H84.9617C85.2445 8.81312 88.4642 12.0111 91.8 12.0111H102.822C103.461 8.90014 101.271 5.07129 96.7384 5.07129Z" fill="white"/>
<path d="M2.59058 31.5911H4.22219C5.43321 31.5911 5.89009 32.2727 5.89009 33.0849C5.89009 34.1871 5.05618 34.6005 4.19324 34.6005C3.96844 34.6005 3.6131 34.5715 3.27227 34.499V35.884H2.59058V31.5983V31.5911ZM3.27227 33.9188C3.53333 33.9696 3.85961 33.9841 4.04816 33.9841C4.6863 33.9841 5.16493 33.7303 5.16493 33.0631C5.16493 32.599 4.95463 32.2292 4.15695 32.2292H3.27227V33.9188Z" fill="white"/>
<path d="M6.57898 33.752C6.59348 32.4177 7.49266 31.5112 8.82696 31.5112C10.1613 31.5112 11.0605 32.4177 11.075 33.7592C11.0605 35.0935 10.1613 36 8.82696 36C7.49266 36 6.59348 35.0935 6.57898 33.752ZM10.3426 33.752C10.3426 32.7875 9.69715 32.1421 8.82696 32.1421C7.95677 32.1421 7.30414 32.7803 7.30414 33.7447C7.30414 34.7092 7.94952 35.3546 8.82696 35.3546C9.70441 35.3546 10.3426 34.7164 10.3426 33.752Z" fill="white"/>
<path d="M15.3971 35.7096C14.9765 35.9126 14.5269 35.9924 14.0628 35.9924C12.7503 35.9924 11.8583 35.0352 11.8583 33.7589C11.8583 32.4029 12.7864 31.5037 14.1788 31.5037C14.5848 31.5037 14.9619 31.5689 15.368 31.743V32.3594C14.9982 32.2071 14.6139 32.1563 14.2296 32.1563C13.2433 32.1563 12.6052 32.7364 12.6052 33.7589C12.6342 34.7814 13.3158 35.3398 14.1715 35.3398C14.5848 35.3398 15.0635 35.2165 15.4043 35.057V35.7096H15.3971Z" fill="white"/>
<path d="M19.5379 35.7096C19.1173 35.9126 18.6678 35.9924 18.2037 35.9924C16.8911 35.9924 15.9991 35.0352 15.9991 33.7589C15.9991 32.4029 16.9274 31.5037 18.3197 31.5037C18.7258 31.5037 19.1029 31.5689 19.509 31.743V32.3594C19.1392 32.2071 18.7548 32.1563 18.3704 32.1563C17.3842 32.1563 16.7461 32.7364 16.7461 33.7589C16.7751 34.7814 17.4568 35.3398 18.3125 35.3398C18.7258 35.3398 19.2044 35.2165 19.5452 35.057V35.7096H19.5379Z" fill="white"/>
<path d="M24.1932 31.5911V35.8768H23.5115V32.9109L20.6907 35.8768H20.4296V31.5911H21.1113V34.5497L23.9321 31.5911H24.1932Z" fill="white"/>
<path d="M29.1532 31.5911V35.8768H28.4716V32.9109L25.6507 35.8768H25.3896V31.5911H26.0713V34.5498L28.8921 31.5911H29.1532ZM26.1655 30.2061H26.7892C26.8182 30.5106 27.0068 30.7282 27.3911 30.7282C27.7754 30.7282 27.9639 30.5106 27.993 30.2061H28.6166C28.5731 30.8732 28.0437 31.2648 27.3911 31.2648C26.7385 31.2648 26.2018 30.8732 26.1655 30.2061Z" fill="white"/>
<path d="M33.664 35.7096C33.2434 35.9126 32.7939 35.9924 32.3298 35.9924C31.0172 35.9924 30.1252 35.0352 30.1252 33.7589C30.1252 32.4029 31.0535 31.5037 32.4458 31.5037C32.8519 31.5037 33.229 31.5689 33.6351 31.743V32.3594C33.2653 32.2071 32.8809 32.1563 32.4965 32.1563C31.5103 32.1563 30.8722 32.7364 30.8722 33.7589C30.9012 34.7814 31.5829 35.3398 32.4386 35.3398C32.8519 35.3398 33.3305 35.2165 33.6713 35.057V35.7096H33.664Z" fill="white"/>
<path d="M34.5483 31.5911H35.2299V33.4402H35.6433L37.2168 31.5911H38.0217L36.2669 33.6433L38.2393 35.8768H37.3111L35.6867 34.0059H35.2226V35.8768H34.541V31.5911H34.5483Z" fill="white"/>
<path d="M38.6675 35.8768L40.7125 31.5911H40.9155L43.0185 35.8768H42.2499L41.8365 34.9993H39.8133L39.4217 35.8768H38.6603H38.6675ZM40.8141 32.7948L40.0817 34.4192H41.5682L40.8141 32.7948Z" fill="white"/>
<path d="M45.5853 34.4836C45.5128 34.4836 45.4257 34.4836 45.3532 34.4836L44.5194 35.8831H43.6854L44.6281 34.353C44.0479 34.15 43.6129 33.7221 43.6129 32.9825C43.6129 32.0543 44.2075 31.5974 45.288 31.5974H47.1299V35.8831H46.4482V34.4038C46.1727 34.4618 45.8754 34.4908 45.5853 34.4908V34.4836ZM45.6361 33.8962C45.8971 33.8962 46.1437 33.8962 46.4482 33.8237V32.2065H45.2952C44.7006 32.2065 44.3453 32.4894 44.3453 33.0332C44.3453 33.7366 45.0052 33.8962 45.6361 33.8962Z" fill="white"/>
<path d="M54.4833 31.5911V35.8768H53.8016V32.2292H51.6043V35.8768H50.9227V31.5911H54.4906H54.4833Z" fill="white"/>
<path d="M55.6727 31.5911H57.3043C58.5154 31.5911 58.9722 32.2727 58.9722 33.0849C58.9722 34.1871 58.1382 34.6005 57.2753 34.6005C57.0505 34.6005 56.6952 34.5715 56.3543 34.499V35.884H55.6727V31.5983V31.5911ZM56.3543 33.9188C56.6154 33.9696 56.9418 33.9841 57.1303 33.9841C57.7685 33.9841 58.247 33.7303 58.247 33.0631C58.247 32.599 58.0367 32.2292 57.239 32.2292H56.3543V33.9188Z" fill="white"/>
<path d="M59.7988 31.5911H62.8808V32.2292H60.4587V33.404H62.5834V34.0494H60.4587V35.2459H62.9098V35.884H59.8061V31.5983L59.7988 31.5911Z" fill="white"/>
<path d="M66.3323 35.7752L64.7877 33.1574L64.3817 35.8768H63.6565L64.4106 31.5911H64.6137L66.3396 34.5787L68.0509 31.5911H68.254L69.0371 35.8768H68.312L67.8333 33.1574L66.3396 35.7752H66.3323Z" fill="white"/>
<path d="M69.9511 31.5911H70.6328V33.1502C70.8866 33.1066 71.2419 33.0776 71.4667 33.0776C72.5109 33.0776 73.3159 33.4402 73.3159 34.4845C73.3159 35.2531 72.7865 35.884 71.7422 35.884H69.9438V31.5983L69.9511 31.5911ZM72.5834 34.47C72.5834 33.8246 72.025 33.6795 71.4594 33.6795C71.1548 33.6795 70.9228 33.7085 70.64 33.7665V35.2604H71.5755C72.1991 35.2604 72.5834 34.9993 72.5834 34.4772V34.47Z" fill="white"/>
<path d="M74.1786 31.5911H77.2605V32.2292H74.8385V33.404H76.9633V34.0494H74.8385V35.2459H77.2896V35.884H74.1858V31.5983L74.1786 31.5911Z" fill="white"/>
<path d="M78.1454 31.5911H79.777C80.988 31.5911 81.4448 32.2727 81.4448 33.0849C81.4448 34.1871 80.6109 34.6005 79.748 34.6005C79.5232 34.6005 79.1678 34.5715 78.827 34.499V35.884H78.1454V31.5983V31.5911ZM78.827 33.9188C79.0881 33.9696 79.4144 33.9841 79.603 33.9841C80.2411 33.9841 80.7197 33.7303 80.7197 33.0631C80.7197 32.599 80.5093 32.2292 79.7117 32.2292H78.827V33.9188Z" fill="white"/>
<path d="M82.1262 34.4979V33.8743H84.1639V34.4979H82.1262Z" fill="white"/>
<path d="M87.7318 32.2292H86.1655V32.7223C86.1655 35.2821 85.6869 35.9275 84.8094 35.9275C84.7006 35.9275 84.5629 35.9275 84.4541 35.9058L84.5049 35.2966C85.1938 35.3982 85.4984 34.9558 85.4984 32.4177V31.5911H88.4135V35.8768H87.7318V32.2292Z" fill="white"/>
<path d="M93.3736 31.5911V35.8768H92.6919V32.9109L89.871 35.8768H89.61V31.5911H90.2917V34.5497L93.1126 31.5911H93.3736Z" fill="white"/>
<path d="M94.5629 31.5911H97.4054V32.2075H95.2517V35.8768H94.57V31.5911H94.5629Z" fill="white"/>
<path d="M96.9704 35.8768L99.0153 31.5911H99.2184L101.321 35.8768H100.553L100.139 34.9993H98.1161L97.7246 35.8768H96.9631H96.9704ZM99.1168 32.7948L98.3844 34.4192H99.871L99.1168 32.7948Z" fill="white"/>
</svg>
