<svg width="32" height="32" viewBox="0 0 32 32" fill="none" xmlns="http://www.w3.org/2000/svg">
<mask id="mask0_1_21339" style="mask-type:luminance" maskUnits="userSpaceOnUse" x="0" y="0" width="32" height="32">
<path d="M32 0H0V32H32V0Z" fill="white"/>
</mask>
<g mask="url(#mask0_1_21339)">
<mask id="mask1_1_21339" style="mask-type:luminance" maskUnits="userSpaceOnUse" x="0" y="0" width="32" height="32">
<path d="M24.2424 0H7.75761C3.47281 0 0 3.47318 0 7.75758V24.2424C0 28.5268 3.47281 32 7.75761 32H24.2424C28.5272 32 32 28.5268 32 24.2424V7.75758C32 3.47318 28.5272 0 24.2424 0Z" fill="white"/>
</mask>
<g mask="url(#mask1_1_21339)">
<path d="M20.085 15.2694H10.6314V11.5284H20.085C20.6378 11.5284 21.0218 11.6246 21.2146 11.7927C21.4066 11.9609 21.5266 12.2726 21.5266 12.728V14.0713C21.5266 14.5511 21.4066 14.8629 21.2146 15.031C21.0218 15.199 20.6378 15.2709 20.085 15.2709V15.2694ZM20.7338 8.00144H17.2058H13.6778H6.62177V24H10.6314V18.795H18.0202L21.5266 24H26.0162L22.1506 18.7706C23.5754 18.5594 24.2154 18.1226 24.7434 17.4029C25.2714 16.6831 25.5354 15.5324 25.5354 13.9966V12.797C25.5354 11.8862 25.4394 11.1664 25.2714 10.6147C25.1026 10.063 24.8154 9.5832 24.4066 9.15216C23.9754 8.74416 23.4954 8.45688 22.9186 8.26432C22.3418 8.09624 21.621 8 20.7338 8V8.00144Z" fill="white"/>
<path d="M48.3184 9.53674e-06C48.3184 8.83656 41.1552 16 32.3184 16C30.5224 16 28.7952 15.7039 27.1824 15.1578C27.2168 14.7776 27.2328 14.3889 27.2328 13.9966V12.797C27.2328 11.7784 27.1264 10.8806 26.8944 10.1197C26.6432 9.29912 26.2144 8.59296 25.6384 7.98498L25.6064 7.95122L25.5728 7.91927C24.9584 7.3387 24.2632 6.92425 23.4552 6.6547L23.424 6.64435L23.3928 6.63518C22.6248 6.41115 21.7368 6.30303 20.7336 6.30303H19.0368V6.30446H17.6088C16.7784 4.36987 16.3184 2.23863 16.3184 9.53674e-06C16.3184 -8.83656 23.4824 -16 32.3184 -16C41.1552 -16 48.3184 -8.83656 48.3184 9.53674e-06Z" fill="white"/>
</g>
<path d="M7.63035 0.800537H24.3696C28.1416 0.800537 31.2 3.85878 31.2 7.6313V24.3697C31.2 28.1423 28.1416 31.2005 24.3696 31.2005H7.63035C3.85835 31.2005 0.799957 28.1423 0.799957 24.3697V7.6313C0.799957 3.85878 3.85835 0.800537 7.63035 0.800537Z" stroke="white" stroke-width="2"/>
</g>
</svg>
