<svg width="32" height="32" viewBox="0 0 32 32" fill="none" xmlns="http://www.w3.org/2000/svg">
<path fill-rule="evenodd" clip-rule="evenodd" d="M32 16C32 24.8366 24.8366 32 16 32C7.16345 32 0 24.8366 0 16C0 7.16345 7.16345 0 16 0C24.8366 0 32 7.16345 32 16ZM16.5722 11.8111C15.016 12.4585 11.9057 13.7982 7.24138 15.8303C6.48397 16.1315 6.08721 16.4262 6.05109 16.7143C5.99004 17.2013 6.59981 17.393 7.43016 17.6541C7.5431 17.6896 7.66014 17.7264 7.78011 17.7654C8.59704 18.031 9.696 18.3416 10.2673 18.354C10.7854 18.3652 11.3638 18.1515 12.0024 17.713C16.3604 14.7713 18.61 13.2843 18.7513 13.2522C18.8509 13.2297 18.989 13.2012 19.0826 13.2844C19.1761 13.3675 19.1669 13.525 19.157 13.5673C19.0966 13.8248 16.703 16.0501 15.4643 17.2017C15.0782 17.5606 14.8043 17.8153 14.7483 17.8734C14.6229 18.0038 14.495 18.127 14.3722 18.2454C13.6132 18.977 13.0441 19.5257 14.4037 20.4217C15.057 20.8522 15.5798 21.2082 16.1014 21.5634C16.6711 21.9514 17.2392 22.3382 17.9743 22.8202C18.1616 22.9429 18.3405 23.0704 18.5147 23.1946C19.1776 23.6672 19.7732 24.0918 20.509 24.0241C20.9366 23.9848 21.3782 23.5827 21.6024 22.3838C22.1325 19.5501 23.1744 13.4106 23.4151 10.8806C23.4362 10.6589 23.4097 10.3752 23.3884 10.2507C23.3671 10.1262 23.3226 9.94872 23.1607 9.81736C22.969 9.66184 22.673 9.62904 22.5407 9.63136C21.9389 9.642 21.0156 9.96304 16.5722 11.8111Z" fill="white"/>
</svg>
