<svg width="32" height="32" viewBox="0 0 32 32" fill="none" xmlns="http://www.w3.org/2000/svg">
<mask id="mask0_1_21330" style="mask-type:luminance" maskUnits="userSpaceOnUse" x="0" y="0" width="32" height="32">
<path d="M32 0H0V32H32V0Z" fill="white"/>
</mask>
<g mask="url(#mask0_1_21330)">
<mask id="mask1_1_21330" style="mask-type:luminance" maskUnits="userSpaceOnUse" x="0" y="0" width="32" height="32">
<path d="M32 0H0V32H32V0Z" fill="white"/>
</mask>
<g mask="url(#mask1_1_21330)">
<path fill-rule="evenodd" clip-rule="evenodd" d="M2.24944 2.24942C-1.52588e-06 4.49885 0 8.1192 0 15.36V16.64C0 23.8808 -1.52588e-06 27.5011 2.24944 29.7506C4.49888 32 8.1192 32 15.36 32H16.64C23.8808 32 27.5008 32 29.7504 29.7506C32 27.5011 32 23.8808 32 16.64V15.36C32 8.1192 32 4.49885 29.7504 2.24942C27.5008 0 23.8808 0 16.64 0H15.36C8.1192 0 4.49888 0 2.24944 2.24942ZM5.4 9.7328C5.57336 18.0528 9.73328 23.0528 17.0266 23.0528H17.4401V18.2928C20.12 18.5594 22.1464 20.5194 22.96 23.0528H26.7464C25.7064 19.2662 22.9736 17.1728 21.2664 16.3728C22.9736 15.3862 25.3736 12.9862 25.9464 9.7328H22.5064C21.76 12.3728 19.5464 14.7728 17.4401 14.9994V9.7328H13.9999V18.9594C11.8666 18.4262 9.17336 15.8394 9.05336 9.7328H5.4Z" fill="white"/>
</g>
</g>
</svg>
